{"glyphs":{":":{"x_min":0,"x_max":110,"ha":110,"o":"m 62 92 q 68 91 72 88 q 76 86 80 83 q 84 80 86 76 q 90 68 92 61 q 94 54 94 47 q 94 40 92 35 q 91 28 88 23 q 86 18 81 14 q 76 10 69 8 q 62 5 55 4 q 49 2 41 2 q 33 3 25 6 q 19 8 15 12 q 11 15 8 18 q 4 22 4 27 q 2 35 2 44 q 2 52 3 60 q 4 68 9 76 q 11 79 15 83 q 20 90 26 92 q 33 92 39 93 q 44 93 50 94 q 57 94 62 92 z m 25 406 q 19 409 15 413 q 11 416 8 420 q 4 423 4 427 q 2 435 2 444 q 2 452 3 460 q 4 468 9 476 q 11 480 15 484 q 20 491 26 493 q 33 493 39 494 q 44 494 50 494 q 57 495 62 493 q 68 491 72 488 q 76 486 80 483 q 84 480 86 477 q 90 469 92 461 q 94 454 94 448 q 94 441 92 436 q 91 429 88 424 q 86 419 81 414 q 76 410 69 408 q 62 405 55 404 q 49 402 41 402 q 33 403 25 406 z"},"$":{"x_min":0,"x_max":512,"ha":512,"o":"m 443 337 q 465 319 478 300 q 490 280 495 262 q 500 243 498 225 q 497 207 493 191 q 482 153 453 118 q 437 88 411 68 q 385 47 356 34 q 328 21 302 14 q 275 8 258 5 q 253 -12 251 -26 q 249 -39 247 -50 q 245 -62 244 -72 q 232 -58 227 -38 q 222 -17 221 1 q 167 -3 130 6 q 93 15 70 26 q 43 39 25 58 q 3 81 2 100 q 0 118 7 132 q 15 148 32 161 q 30 140 39 124 q 48 108 59 97 q 72 84 90 75 q 131 67 165 66 q 199 65 227 69 q 230 96 230 128 q 229 161 227 190 q 224 223 220 256 q 215 272 213 296 q 211 320 211 343 q 211 369 213 399 q 212 400 212 402 l 212 410 q 193 421 178 430 q 163 440 152 447 q 139 455 129 461 q 87 484 62 507 q 37 530 25 552 q 13 574 12 594 q 11 614 16 632 q 28 673 72 710 q 108 743 144 762 q 181 780 217 788 q 218 808 222 830 q 226 853 240 868 q 241 858 243 847 q 245 837 247 824 q 249 810 253 794 q 301 799 344 790 q 386 782 418 770 q 455 756 487 736 q 476 738 466 739 q 457 740 449 742 q 440 744 433 745 q 447 736 457 723 q 467 710 472 698 q 478 684 482 669 q 450 700 390 721 q 331 742 266 744 q 267 742 268 740 q 269 737 270 735 q 276 703 280 667 q 283 636 284 598 q 285 559 281 520 q 278 511 276 500 q 271 478 271 444 q 305 423 336 404 q 367 384 391 369 q 419 351 443 337 z m 79 663 q 71 648 71 634 q 71 619 77 605 q 83 591 93 578 q 103 564 115 552 q 143 524 184 498 q 190 494 196 490 q 203 487 209 483 q 210 499 212 514 q 213 529 217 540 q 221 577 224 614 q 226 646 226 681 q 226 716 221 743 q 175 738 137 719 q 99 700 79 663 z m 357 118 q 385 140 400 161 q 416 182 422 200 q 429 218 428 234 q 427 249 422 262 q 410 292 375 315 q 349 329 324 344 q 299 358 275 372 q 276 354 278 337 q 279 320 281 306 q 283 290 284 276 q 287 246 287 216 q 287 187 286 160 q 284 134 282 113 q 279 92 277 79 q 297 84 312 91 q 327 98 337 104 q 348 111 357 118 z"},"?":{"x_min":0,"x_max":500,"ha":500,"o":"m 257 88 q 263 86 267 83 q 271 81 275 78 q 279 75 281 72 q 285 64 287 56 q 289 49 289 42 q 289 36 287 31 q 286 24 283 19 q 281 14 276 10 q 272 6 265 4 q 258 1 251 0 q 235 -4 220 2 q 214 4 210 8 q 206 11 203 14 q 200 18 199 23 q 198 30 198 39 q 198 46 199 54 q 200 63 205 71 l 211 79 q 217 87 222 88 q 229 89 235 89 q 240 89 246 89 q 252 89 257 88 z m 427 712 q 473 676 486 636 q 492 619 490 599 q 489 579 476 557 q 464 535 438 512 q 412 490 368 467 q 351 452 336 426 q 323 404 310 369 q 297 334 289 283 l 289 282 l 238 182 q 227 194 220 214 q 213 233 208 252 q 202 274 198 297 q 197 315 207 340 q 215 361 234 392 q 252 422 289 460 q 307 478 324 496 q 338 511 354 528 q 370 544 383 556 q 385 567 386 580 q 388 592 390 603 q 391 616 392 629 l 377 711 q 338 736 284 742 q 231 749 176 742 q 122 734 74 716 q 27 697 0 672 q 4 687 11 701 q 17 713 26 726 q 36 738 52 746 q 44 745 34 744 q 26 742 16 740 q 6 739 -5 737 q 63 776 136 790 q 167 796 202 796 q 238 797 276 789 q 313 781 351 763 q 389 745 427 712 z m 411 598 q 420 615 422 632 q 424 649 415 666 q 411 672 408 678 q 404 684 399 690 l 409 631 q 411 626 412 616 q 412 607 411 598 z"},"<":{"x_min":0,"x_max":311,"ha":311,"o":"m 304 495 q 296 476 283 454 q 270 432 254 410 q 238 387 220 364 q 201 341 183 320 q 141 271 92 221 q 124 204 158 168 q 191 132 219 96 q 251 53 281 5 l 1 236 l 304 495 z"},"'":{"x_min":0,"x_max":110,"ha":110,"o":"m 96 693 q 93 673 88 655 q 83 639 76 621 q 68 603 54 590 l 59 657 q 52 655 44 655 q 35 655 26 659 q 20 661 16 665 q 12 668 8 672 q 5 675 5 680 q 3 688 3 697 q 3 705 4 713 q 5 721 10 729 q 12 733 16 737 q 21 744 27 746 q 33 746 40 747 q 45 747 52 748 q 58 748 63 746 q 69 744 73 741 q 77 739 81 736 q 85 733 87 730 q 90 723 92 717 q 94 711 95 704 q 96 698 95 693 l 96 693 z"},"=":{"x_min":0,"x_max":515,"ha":515,"o":"m 359 185 q 389 179 416 177 q 439 175 462 178 q 486 181 500 194 q 499 184 490 177 q 482 170 465 165 q 448 160 417 160 q 339 159 272 159 q 243 159 214 160 q 185 160 160 161 q 134 162 114 164 q 93 165 81 167 q 61 170 46 174 q 32 177 21 179 q 9 182 0 184 q 8 182 22 184 q 35 186 47 188 q 61 191 76 195 q 95 200 118 204 q 138 207 164 208 q 189 209 218 205 q 227 205 238 204 q 247 203 258 202 q 270 202 281 202 q 300 202 318 203 q 334 204 352 204 q 370 204 386 205 q 389 205 395 203 q 401 201 407 199 q 414 196 422 193 q 428 189 437 188 q 446 187 454 188 q 464 188 474 190 q 469 187 460 186 q 451 185 442 185 q 433 185 426 186 q 419 186 419 186 q 412 188 406 188 q 400 189 395 190 q 389 191 384 191 q 376 190 371 189 q 366 188 362 188 q 358 187 359 185 z m 119 421 q 92 424 68 421 q 48 419 28 412 q 9 405 1 391 q 3 409 11 424 q 18 437 32 448 q 47 458 73 458 l 211 468 l 284 469 l 429 458 q 455 458 469 446 q 483 435 490 421 q 498 404 499 384 q 493 395 480 402 q 467 409 452 413 q 438 417 423 419 q 408 421 398 421 q 391 419 376 415 q 362 411 344 407 q 326 403 308 400 q 290 398 276 398 l 211 412 q 188 419 160 422 q 133 425 119 421 z m 268 406 q 275 406 306 410 q 336 413 381 422 q 373 424 360 424 q 347 425 332 424 q 317 424 302 422 q 288 420 276 417 z"},"a":{"x_min":0,"x_max":546,"ha":546,"o":"m 458 446 q 461 457 466 466 q 470 474 475 479 q 480 485 486 489 l 486 307 l 486 273 l 486 48 l 486 1 q 477 3 469 7 q 462 10 455 14 q 448 19 446 26 l 443 56 q 435 43 414 30 q 394 18 369 7 q 358 5 349 4 q 340 4 332 3 q 323 2 316 2 q 268 4 232 8 q 196 12 172 17 q 144 22 123 28 q 94 36 72 60 q 51 84 37 110 q 20 140 9 174 q -3 201 0 238 q 4 276 13 311 q 24 351 41 394 q 51 413 71 428 q 91 444 111 455 q 134 468 160 479 q 223 489 268 489 q 312 489 342 483 q 351 481 362 477 q 371 474 382 470 q 393 467 406 463 q 421 458 436 454 q 450 449 458 446 z m 54 182 q 53 180 57 172 q 61 165 68 156 q 74 146 82 136 q 89 125 95 117 l 84 166 l 55 200 q 54 195 54 192 q 54 189 54 187 z m 420 237 q 422 257 418 279 q 413 301 406 320 q 398 342 386 364 q 376 374 367 382 q 358 390 350 396 q 341 403 333 408 q 320 421 295 425 q 270 429 244 429 q 214 429 181 424 q 157 420 139 410 q 121 399 110 388 q 97 375 88 359 q 80 346 73 320 q 85 328 98 343 l 116 365 q 111 356 106 347 q 101 339 96 330 q 90 321 84 314 q 80 309 76 306 q 73 304 69 302 q 61 265 58 231 l 98 166 q 106 138 109 121 q 112 104 114 94 q 124 83 134 77 q 145 71 153 68 q 163 64 172 64 q 187 61 206 60 q 226 60 243 61 q 263 62 284 64 q 298 68 312 74 q 326 81 337 88 q 350 96 362 104 l 369 149 z"},"L":{"x_min":0,"x_max":595,"ha":595,"o":"m 574 74 q 576 53 567 37 q 559 23 540 12 q 520 0 480 0 l 147 0 q 139 -1 132 0 q 120 0 103 5 q 89 6 80 13 q 71 20 71 30 l 71 102 l 71 136 l 29 212 l 33 236 q 35 250 34 266 q 33 282 31 296 q 28 312 24 328 q 31 318 34 302 q 38 285 40 268 q 42 249 42 227 l 71 186 l 71 381 l 7 501 q 5 502 6 516 q 8 530 10 547 q 13 566 17 590 q 14 592 12 596 q 9 601 7 606 q 4 611 3 618 q -1 638 2 649 q 3 655 6 660 l 5 633 q 6 626 9 622 q 12 617 15 615 q 19 611 22 610 l 29 650 q 30 655 30 660 q 31 666 33 672 q 34 678 36 686 q 37 676 37 668 l 37 645 q 37 643 38 627 q 39 611 34 594 q 30 581 30 568 q 29 555 31 544 q 33 531 36 519 q 47 495 56 480 q 64 466 71 458 l 71 750 q 64 754 55 760 q 46 765 38 772 q 29 779 23 786 q 17 793 17 799 l 78 799 l 108 799 l 142 799 l 142 752 l 142 714 q 144 707 148 697 q 151 687 155 678 q 159 669 163 662 q 167 654 171 653 l 142 553 l 142 204 q 143 174 150 148 q 155 126 167 104 q 179 83 201 74 q 212 70 225 66 q 238 63 255 61 q 266 59 277 57 q 287 55 299 54 q 311 53 324 53 q 345 55 367 57 q 385 59 406 60 q 428 61 446 62 q 450 62 456 61 q 462 60 468 58 q 475 56 482 54 q 489 49 498 48 q 508 47 517 48 q 528 49 538 51 q 531 47 519 40 q 507 34 492 39 l 491 39 q 483 41 475 42 q 467 43 459 44 q 450 45 442 45 q 434 43 428 40 q 423 38 418 36 q 413 33 414 31 q 436 27 457 26 q 474 24 493 25 q 512 26 523 31 q 534 34 544 39 q 552 44 560 52 q 569 60 574 74 z m 142 686 l 142 597 q 147 612 151 626 q 155 640 157 644 z"},"3":{"x_min":0,"x_max":548,"ha":548,"o":"m 497 237 q 509 182 501 136 q 498 116 490 96 q 481 77 466 60 q 451 42 428 29 q 404 16 370 10 q 342 6 310 3 q 283 1 247 0 q 211 -2 172 0 q 129 3 94 16 q 64 27 37 49 q 10 71 4 110 q 41 94 80 82 q 113 71 152 64 q 192 56 228 58 q 248 56 272 59 q 292 61 319 67 q 346 73 375 87 l 393 182 l 430 194 q 432 217 425 242 q 418 268 398 294 q 379 318 352 338 q 329 355 294 372 q 258 388 208 396 q 188 400 173 406 q 160 411 150 419 q 140 427 143 438 q 164 436 185 438 q 203 440 225 444 q 247 448 269 458 q 311 475 344 497 q 357 506 370 518 q 383 530 392 544 q 401 557 405 572 q 409 588 406 606 q 400 631 385 654 q 372 674 349 694 q 326 714 288 726 q 262 732 234 736 q 210 739 180 741 q 151 743 121 738 q 101 735 82 728 q 62 720 46 710 q 30 701 20 692 q 9 682 7 677 q 10 694 14 709 q 18 722 24 735 q 31 748 42 756 q 54 767 74 776 q 91 784 118 789 q 145 794 187 792 q 219 793 251 791 q 278 789 308 784 q 339 780 362 772 q 375 767 389 757 q 401 749 414 736 q 428 722 442 701 q 445 698 453 689 q 461 680 470 670 q 479 659 486 650 q 494 640 496 636 q 498 625 500 614 q 502 605 503 596 q 504 586 504 580 q 501 590 498 601 q 496 610 493 620 q 490 629 487 635 q 485 636 481 639 q 478 641 474 644 q 471 647 467 650 q 469 645 470 639 q 472 633 474 626 q 479 598 474 568 q 469 542 452 512 q 436 482 398 453 q 388 446 377 440 q 367 435 354 429 q 342 423 328 421 q 369 399 403 371 q 432 347 460 313 q 487 279 497 237 z m 393 96 q 401 106 407 117 q 412 127 418 141 q 423 155 427 172 l 410 165 z"},";":{"x_min":0,"x_max":110,"ha":110,"o":"m 25 403 q 19 406 15 410 q 11 413 8 416 q 4 420 4 424 q 2 432 2 441 q 2 449 3 457 q 4 465 9 473 l 15 481 q 21 489 26 490 q 33 490 39 491 q 44 491 50 492 q 57 492 62 490 q 68 488 72 485 q 76 483 80 480 q 84 477 86 474 q 89 466 91 458 q 93 451 94 444 q 94 438 92 433 q 91 426 88 421 q 86 416 81 412 q 76 407 69 405 q 62 402 55 401 q 49 399 41 400 q 33 400 25 403 z m 94 43 q 92 23 87 5 q 82 -11 74 -29 q 66 -47 53 -60 l 57 7 q 51 5 42 5 q 33 5 24 9 q 18 11 14 15 q 10 18 6 22 q 3 25 3 30 q 1 38 1 47 q 1 55 2 63 q 3 71 8 79 q 10 83 14 87 q 22 95 26 96 q 33 96 39 97 q 44 97 50 98 q 57 98 62 96 q 68 94 72 91 q 76 89 80 86 q 84 83 86 80 q 89 73 91 67 q 93 61 94 54 q 95 48 94 43 z"},"J":{"x_min":0,"x_max":565,"ha":565,"o":"m 496 194 q 496 192 496 174 q 497 156 496 132 q 494 109 490 85 q 485 61 474 47 q 472 42 468 38 q 464 34 458 29 q 452 24 441 19 q 421 9 396 4 q 370 0 347 -2 q 321 -5 293 -4 q 222 -6 177 4 q 132 13 106 25 q 75 39 59 57 q 47 71 36 89 q 27 105 18 127 q 9 149 5 176 q 0 208 1 235 q 2 258 8 282 q 14 305 32 318 q 30 304 29 292 q 28 281 28 270 q 28 258 30 250 q 34 215 46 184 q 56 158 75 131 q 94 104 126 89 q 144 79 161 73 q 178 67 195 62 q 188 72 179 84 q 170 97 162 108 q 152 121 142 134 q 127 137 114 146 q 101 156 90 167 q 78 179 68 194 q 75 184 90 176 q 104 167 118 159 q 135 150 154 142 q 159 133 170 120 q 180 108 193 96 q 206 84 218 73 q 230 62 238 55 q 284 50 317 62 q 350 74 370 91 q 394 110 409 136 q 414 142 418 155 q 421 168 423 181 q 425 196 425 213 l 425 231 l 425 370 l 357 497 q 355 498 357 512 q 359 525 361 542 q 364 561 367 585 q 365 587 362 592 q 360 597 358 602 q 355 607 353 614 q 351 624 351 632 q 351 640 353 645 q 355 651 357 655 l 356 628 q 357 616 365 610 q 369 606 372 605 l 379 646 q 380 650 381 656 q 382 663 384 668 q 386 674 387 681 l 387 664 l 387 640 q 387 638 388 622 q 390 606 385 589 q 380 576 380 563 q 379 550 381 539 q 383 527 386 515 q 398 486 408 472 q 418 457 425 450 l 425 617 l 425 746 q 418 750 409 756 q 400 762 392 768 q 383 775 377 782 q 371 790 371 796 l 432 796 l 462 796 l 496 796 l 496 770 l 496 749 l 496 649 l 496 617 l 496 230 z m 457 40 q 466 58 472 74 q 477 88 482 100 q 486 112 484 117 q 470 94 457 75 q 446 58 433 44 q 420 29 411 24 q 422 26 432 30 q 440 32 448 35 q 455 38 457 40 z"},"V":{"x_min":0,"x_max":622,"ha":622,"o":"m 595 800 l 583 764 l 518 563 q 522 549 526 533 q 531 517 535 502 q 539 486 542 472 q 546 459 547 450 q 539 438 532 427 q 526 417 520 407 q 514 397 512 391 q 513 397 516 407 q 520 417 523 427 q 526 437 529 445 q 532 453 534 455 l 502 513 l 347 34 q 343 20 336 12 q 328 4 317 4 q 306 4 298 12 q 291 21 287 34 l 264 107 l 183 187 l 180 212 q 178 226 172 241 q 167 256 161 269 q 154 284 145 299 q 154 291 162 276 q 171 261 177 245 q 184 227 191 205 l 245 165 l 165 414 l 55 527 q 53 528 50 542 q 48 556 46 573 l 40 617 q 32 621 26 630 q 22 634 18 641 q 13 650 11 658 q 9 666 9 671 q 9 677 10 683 l 17 655 q 21 644 31 640 q 35 638 39 638 l 34 680 q 33 684 33 690 q 33 696 33 702 q 33 709 32 716 q 35 707 38 699 q 40 692 42 686 q 43 680 44 677 q 45 675 50 659 q 56 643 56 626 q 55 612 58 600 q 62 587 67 576 q 72 564 79 553 q 99 527 114 515 q 129 503 137 499 l 74 695 l 65 724 l 59 741 l 54 758 q 43 763 34 770 q 26 776 20 783 q 13 791 7 800 l 103 800 l 114 766 l 135 699 l 294 207 l 317 202 l 350 235 l 519 757 l 516 758 q 505 763 496 770 q 488 776 482 783 q 475 791 469 800 z m 333 183 l 317 178 l 301 186 l 317 135 z"},"\"":{"x_min":0,"x_max":219,"ha":219,"o":"m 85 822 q 88 815 90 809 q 93 795 92 785 l 93 785 q 90 765 85 747 q 80 731 72 714 q 65 696 51 683 l 56 749 q 49 748 40 748 q 32 748 23 751 q 17 753 13 757 q 9 760 6 764 q 2 767 2 772 q 0 780 0 789 q 0 806 8 821 q 11 824 14 828 q 19 835 25 838 q 32 839 38 839 q 43 839 50 839 q 56 839 61 838 q 67 836 71 833 q 75 831 79 828 q 83 825 85 822 z m 204 785 q 202 765 197 747 q 192 731 184 714 q 176 696 163 683 l 167 749 q 161 748 152 748 q 143 748 135 751 q 128 753 124 757 q 120 760 116 764 q 113 767 113 772 q 111 780 111 789 q 111 806 119 821 q 122 824 125 828 q 130 835 136 838 q 143 839 149 839 q 154 839 160 839 q 167 839 172 838 q 178 836 182 833 q 186 831 190 828 q 194 825 196 822 q 199 815 201 809 q 204 795 203 785 z"},"7":{"x_min":0,"x_max":521,"ha":521,"o":"m 501 796 l 482 751 l 159 51 l 136 0 l 5 0 q 10 11 21 21 q 30 29 44 36 q 59 42 82 44 l 97 75 l 129 145 l 114 238 l 126 259 q 133 271 137 287 q 141 303 144 317 q 147 334 149 351 q 152 339 150 322 q 148 305 143 288 q 138 269 131 248 l 148 186 l 392 715 l 280 719 q 247 729 218 737 q 193 743 168 748 q 143 752 129 748 q 121 747 112 745 q 104 743 94 741 q 84 739 73 735 q 56 721 44 709 l 31 696 q 39 713 51 727 q 37 721 24 712 q 12 703 5 690 q 3 718 10 740 q 16 759 30 775 q 45 791 76 791 z m 407 737 q 374 737 347 736 q 324 735 304 734 q 283 734 281 733 q 283 731 296 729 q 307 727 330 727 q 353 727 398 730 z"},"S":{"x_min":0,"x_max":604,"ha":604,"o":"m 509 344 q 533 325 547 306 q 561 286 566 267 q 572 248 570 230 q 569 212 564 196 q 552 158 520 122 q 508 102 492 86 q 475 70 456 58 q 437 46 416 38 q 396 29 376 23 q 329 9 278 4 q 215 -2 171 6 q 127 15 99 27 q 66 41 46 61 q 23 84 21 103 q 19 122 27 136 q 36 152 54 165 q 52 144 62 128 q 71 112 84 101 q 99 88 119 79 q 173 68 218 68 q 262 69 297 76 l 252 95 q 227 92 204 91 q 184 90 164 92 q 145 93 133 99 q 152 97 171 96 q 188 95 206 96 q 224 97 240 102 l 267 109 l 339 86 q 357 92 371 98 q 385 105 394 110 q 405 116 413 122 q 444 145 462 166 q 479 186 486 204 q 493 223 492 239 q 491 255 485 268 q 471 299 433 322 q 398 339 364 358 q 330 376 298 393 l 146 419 q 144 418 133 428 q 122 438 109 450 q 94 464 75 481 q 70 480 64 481 q 59 482 53 484 q 46 486 39 488 q 19 496 11 506 q 7 510 4 516 l 28 498 q 35 494 40 494 q 46 493 51 494 q 56 495 61 496 l 30 526 q 26 529 22 534 q 18 538 14 543 q 10 548 4 553 l 20 543 q 34 534 41 529 q 43 527 58 518 q 73 510 84 496 q 92 485 104 477 q 116 469 127 463 q 139 456 152 451 q 189 443 212 441 q 200 447 191 452 q 182 457 175 461 q 167 465 161 469 q 114 493 86 516 q 59 540 46 562 q 32 584 31 604 q 30 625 36 643 q 50 684 99 722 q 139 755 180 774 q 220 793 260 802 q 299 810 336 809 q 374 808 407 802 q 484 788 557 748 q 545 750 534 751 q 523 752 515 754 q 505 756 497 757 q 513 748 524 735 q 534 722 540 710 q 547 696 551 680 q 523 706 472 726 q 422 745 364 752 q 307 760 250 754 q 193 747 152 721 l 137 637 q 137 623 139 610 q 141 599 142 586 q 144 572 147 561 q 173 536 197 522 q 209 513 222 507 q 272 479 322 450 q 373 421 415 398 q 463 370 509 344 z m 106 674 q 95 657 98 639 q 100 621 110 604 q 110 614 110 624 q 111 633 113 638 l 125 699 q 120 693 115 687 q 110 681 106 674 z"},"}":{"x_min":0,"x_max":305,"ha":305,"o":"m 283 257 q 266 245 255 234 q 244 224 236 212 q 229 200 231 190 q 232 180 228 151 q 224 122 218 88 q 212 53 206 19 q 200 -15 199 -35 q 191 -80 181 -118 q 173 -150 163 -180 q 153 -210 145 -218 l 8 -297 q 33 -260 55 -223 q 74 -191 92 -156 q 109 -120 117 -90 q 124 -59 128 -19 q 133 21 138 62 q 144 104 151 143 q 158 182 170 212 q 171 216 175 222 q 179 228 184 234 q 188 240 192 246 q 197 251 199 255 q 194 262 183 276 q 172 290 170 299 q 158 329 152 363 q 147 397 144 433 q 141 469 140 505 q 138 541 135 573 q 132 603 119 636 q 106 669 88 700 q 70 731 49 759 q 28 787 8 808 q 41 801 76 785 q 105 771 141 747 q 177 723 209 682 q 215 637 219 595 q 223 559 225 521 q 227 483 225 457 q 213 422 210 390 q 208 363 215 335 q 222 307 250 292 z m 283 257 q 284 256 283 256 q 276 263 270 270 q 263 276 257 284 l 251 290 q 249 292 248 292 q 246 293 244 295 q 238 299 234 304 q 229 309 225 314 q 211 337 209 366 q 208 389 212 411 q 216 433 223 454 q 224 456 224 458 q 225 460 225 463 l 225 491 q 225 508 224 525 q 223 542 222 559 q 220 588 217 616 q 214 643 210 672 q 210 674 210 676 q 209 679 209 682 q 208 684 206 686 q 204 687 203 689 q 199 694 196 698 q 192 702 188 706 q 173 721 157 734 q 141 748 123 760 q 100 774 74 786 q 49 797 22 805 q 19 806 16 806 q 13 806 11 807 q 10 807 10 808 q 9 808 8 808 q 10 807 10 806 q 11 805 13 803 q 43 772 64 739 q 88 704 108 664 q 127 625 134 582 q 137 561 138 540 q 139 518 141 497 q 142 450 147 404 q 150 381 154 359 q 158 337 165 315 q 168 306 172 298 q 175 290 180 282 q 185 275 190 269 q 195 263 200 255 q 195 248 190 242 q 186 237 181 230 q 176 224 173 218 q 170 211 167 203 q 162 187 158 171 q 154 155 151 138 q 143 100 139 62 q 135 25 130 -13 q 128 -31 126 -49 q 123 -67 119 -85 q 116 -101 110 -116 q 104 -131 97 -145 q 83 -177 66 -206 q 49 -235 30 -264 q 25 -272 20 -280 q 15 -287 10 -295 l 8 -297 q 8 -297 8 -296 q 10 -294 12 -294 q 15 -293 17 -291 l 101 -243 q 110 -238 119 -233 q 128 -228 137 -223 q 139 -221 141 -220 q 143 -220 145 -218 q 147 -217 148 -214 q 150 -211 151 -209 q 157 -198 160 -186 q 164 -175 168 -164 q 177 -135 183 -106 q 188 -89 192 -71 q 195 -53 199 -35 q 200 -29 200 -23 q 200 -17 201 -12 q 202 -4 203 2 q 204 9 205 17 q 208 34 211 50 q 214 67 217 84 q 219 101 222 116 q 225 132 227 148 q 229 158 230 168 q 232 179 231 189 q 229 202 237 213 q 245 224 253 232 q 265 244 283 257 q 283 257 283 256 q 271 247 259 236 q 247 226 239 213 q 232 205 231 196 q 231 193 232 190 q 232 187 232 184 q 232 170 229 157 q 225 125 219 93 q 213 61 208 29 q 206 15 204 0 q 202 -14 200 -28 q 200 -34 199 -39 q 198 -44 197 -50 q 192 -76 186 -102 q 180 -127 172 -153 q 169 -165 165 -178 q 161 -190 156 -201 q 154 -206 151 -212 q 148 -217 143 -220 q 109 -240 76 -259 q 42 -278 8 -297 q 7 -298 7 -297 q 18 -280 29 -264 q 40 -247 50 -230 q 69 -200 86 -168 q 102 -136 113 -102 q 118 -86 121 -69 q 124 -52 126 -35 q 129 -14 132 7 q 134 28 136 49 q 141 88 147 127 q 153 166 166 204 q 172 219 180 231 q 183 235 186 238 q 189 241 191 245 q 193 247 196 250 q 199 254 197 257 q 192 265 187 271 q 182 277 177 285 q 169 299 164 316 q 150 360 146 405 q 142 450 140 495 q 138 517 138 539 q 137 561 133 583 q 129 605 122 625 q 115 645 106 665 q 87 704 62 740 q 38 777 7 808 q 7 808 8 809 q 22 807 36 802 q 49 797 62 792 q 95 778 125 759 q 155 740 181 714 q 186 710 190 706 q 193 702 197 697 l 205 689 q 206 687 208 686 q 209 685 210 683 l 210 677 q 212 667 213 657 q 214 647 215 637 q 219 604 222 570 q 224 537 226 504 l 226 474 q 226 470 226 465 q 227 460 225 456 q 223 450 221 444 q 219 437 217 430 q 211 404 210 374 q 208 345 222 321 q 229 308 242 297 q 248 295 251 292 q 252 290 255 287 q 263 279 270 272 q 276 265 283 257 z"},"Z":{"x_min":0,"x_max":681,"ha":681,"o":"m 602 33 q 613 36 623 41 q 631 46 640 54 q 649 61 654 75 q 655 54 646 38 q 638 24 618 12 q 599 1 560 1 l 228 1 q 160 2 109 10 q 87 13 66 18 q 46 24 31 32 q 16 40 8 51 q 1 62 5 76 l 19 94 l 75 165 l 80 209 l 98 226 q 108 236 117 250 q 126 265 132 278 q 139 293 145 309 q 145 296 138 280 q 130 264 122 249 q 112 231 100 214 l 100 196 l 242 377 l 238 428 q 237 430 243 442 q 249 454 257 469 q 266 486 278 508 q 275 514 275 527 l 275 540 q 278 558 285 569 q 289 574 293 578 l 282 552 q 279 540 284 532 q 286 528 290 525 l 310 561 q 312 565 316 570 q 319 575 322 580 q 326 585 330 591 q 327 583 324 575 q 322 568 320 562 q 318 555 316 553 q 315 551 311 536 q 307 520 296 506 q 288 495 282 483 q 277 471 275 460 q 271 448 271 435 q 272 430 272 425 q 272 420 273 416 l 500 705 q 491 712 478 722 q 466 733 460 744 q 439 744 417 743 q 395 742 377 740 q 356 738 337 736 q 297 728 266 727 q 236 726 215 729 q 190 732 172 739 q 141 752 112 756 q 82 761 58 761 q 30 761 5 757 q 18 771 44 778 q 70 786 96 788 q 127 791 161 790 l 366 794 q 378 795 396 796 q 415 796 438 796 q 460 796 485 796 q 510 797 534 797 q 590 797 654 798 l 625 754 l 602 723 l 160 122 q 176 110 202 99 q 223 89 256 79 q 289 69 335 62 q 346 60 357 58 q 367 56 379 55 q 391 54 405 54 q 426 56 447 58 q 465 60 486 61 q 507 62 525 63 q 529 63 535 62 q 541 61 547 59 q 554 57 562 55 q 568 50 578 49 q 587 48 596 49 q 607 50 617 53 q 611 48 598 42 q 586 35 572 40 l 570 40 q 562 42 554 43 q 547 44 539 45 q 530 46 522 46 q 514 44 508 41 q 503 39 498 37 q 493 35 494 33 q 517 30 537 28 q 554 26 572 27 q 591 28 602 33 z m 479 743 q 484 735 492 728 q 499 720 508 714 l 524 735 q 510 741 479 743 z m 28 43 q 35 37 45 33 q 53 29 65 26 q 77 22 91 21 q 100 20 109 19 q 117 18 124 17 q 131 16 134 16 q 131 16 113 20 q 95 24 75 32 q 55 40 40 53 q 24 66 26 84 q 21 78 19 72 q 17 67 18 60 q 20 52 28 43 z"},"x":{"x_min":0,"x_max":601,"ha":601,"o":"m 352 255 l 570 3 l 410 3 q 415 12 423 21 q 430 28 442 35 q 453 42 470 46 l 362 151 l 306 138 l 262 152 l 141 16 l 130 3 l 6 3 q 11 14 22 24 q 31 32 45 39 q 59 46 81 48 l 116 88 l 127 185 l 145 202 q 155 212 164 226 q 173 240 179 253 q 186 268 192 284 q 192 272 184 256 q 177 239 169 225 q 159 207 147 190 l 146 124 l 142 117 l 264 255 l 91 452 q 65 450 49 456 q 33 463 23 471 q 12 481 6 493 l 141 493 l 312 300 l 476 455 q 458 458 446 464 q 435 470 429 477 q 422 484 419 493 l 570 493 z m 343 173 l 310 211 l 268 160 l 306 155 z"},")":{"x_min":0,"x_max":299,"ha":299,"o":"m 260 269 q 271 237 275 199 q 279 167 277 124 q 275 82 260 34 q 242 -32 209 -95 q 195 -122 176 -151 q 156 -180 132 -208 q 107 -236 76 -262 q 45 -288 8 -309 q 46 -252 78 -188 q 105 -133 130 -64 q 155 6 163 80 q 173 158 173 228 q 173 258 170 290 q 167 321 160 350 q 154 380 143 406 q 132 431 115 449 q 115 449 114 453 q 114 457 107 476 q 100 494 84 533 q 69 572 40 641 l 7 796 q 28 758 53 711 q 74 671 102 618 q 129 564 158 501 q 186 449 208 403 q 227 364 242 326 q 258 287 260 269 z m 115 449 q 114 449 114 450 q 114 450 115 449 z"},"&":{"x_min":0,"x_max":699,"ha":699,"o":"m 675 299 q 646 236 606 191 q 567 146 518 111 q 551 82 582 54 q 612 27 638 1 l 513 37 q 486 53 459 73 q 447 66 434 60 q 421 53 408 46 q 387 37 355 28 q 323 18 286 12 q 249 5 210 2 q 170 0 134 3 q 98 6 69 16 q 40 26 23 46 q -7 83 0 124 q 7 166 36 207 q 65 248 108 286 q 151 323 193 353 q 173 384 148 410 q 123 436 104 453 l 101 432 q 101 429 105 422 q 109 415 114 407 q 119 398 127 388 l 105 401 l 75 440 l 80 473 l 106 686 q 132 728 166 752 q 200 777 238 788 q 277 800 318 800 q 358 800 396 794 q 486 779 583 732 q 591 720 592 702 q 593 683 590 662 q 587 641 580 618 q 573 596 564 574 q 544 522 512 465 q 471 441 436 420 q 401 400 375 385 q 344 367 319 354 q 311 348 303 342 q 295 336 287 330 q 326 286 371 244 q 416 201 464 159 q 475 166 487 173 q 499 180 510 187 q 530 203 558 226 q 585 248 605 270 q 599 261 592 251 q 584 241 576 230 q 598 244 616 256 q 633 269 647 279 q 662 290 675 299 z m 168 546 q 173 493 206 437 l 241 444 l 282 410 q 289 414 294 417 q 300 420 305 422 q 356 446 392 462 q 427 479 450 500 q 472 522 483 554 q 494 586 496 639 q 497 660 483 674 q 469 689 446 698 q 423 707 394 712 q 365 716 336 717 q 289 718 256 715 q 223 712 202 695 q 181 678 173 643 q 165 608 168 546 z m 250 416 l 217 420 q 226 404 241 386 q 249 391 256 394 q 262 398 269 402 z m 87 101 q 99 93 115 88 q 131 83 145 80 q 162 76 179 75 q 159 79 144 86 q 130 93 120 101 q 109 110 100 120 q 97 124 102 140 q 106 156 114 173 q 122 193 134 217 q 129 217 124 210 q 118 204 113 196 q 107 186 100 175 q 87 151 84 136 q 80 122 81 114 q 82 104 87 101 z m 337 99 q 351 104 366 110 q 381 116 397 124 q 347 168 307 213 q 267 258 239 292 q 177 241 149 206 q 121 171 116 148 q 112 124 126 112 q 141 99 165 94 q 222 81 337 99 z m 605 270 q 610 277 614 283 q 617 289 620 294 l 626 303 q 623 290 605 270 z"},"_":{"x_min":0,"x_max":521,"ha":521,"o":"m 366 -78 q 396 -84 423 -86 q 446 -88 470 -85 q 493 -82 507 -70 q 506 -79 497 -86 q 489 -92 472 -97 q 455 -102 424 -102 q 346 -104 279 -104 q 250 -104 221 -104 q 192 -103 166 -102 q 141 -101 120 -100 q 100 -98 88 -96 q 68 -93 54 -90 q 39 -87 28 -85 q 16 -82 7 -80 q 15 -81 28 -79 q 42 -77 54 -75 q 68 -72 83 -69 q 102 -65 125 -61 q 145 -59 170 -58 q 196 -56 225 -60 q 234 -61 245 -61 q 254 -62 266 -62 q 277 -62 288 -62 q 307 -61 325 -61 q 341 -61 359 -61 q 377 -61 393 -60 q 396 -60 402 -62 q 408 -64 414 -66 q 421 -69 429 -71 q 435 -75 444 -76 q 453 -77 461 -76 q 471 -76 481 -74 q 476 -77 467 -78 q 458 -79 449 -79 q 440 -79 433 -78 q 426 -78 426 -78 q 419 -76 413 -76 q 407 -75 402 -74 q 396 -73 391 -73 q 383 -73 378 -74 q 373 -75 369 -76 q 365 -77 366 -78 z"},"v":{"x_min":0,"x_max":580,"ha":580,"o":"m 519 415 l 372 83 l 370 83 l 372 83 q 355 39 338 20 q 322 1 306 0 q 291 -2 278 9 q 264 20 254 36 q 243 51 236 66 q 228 81 226 87 l 225 90 l 145 173 l 143 198 q 141 212 136 228 q 131 243 125 256 q 118 271 110 286 q 119 278 127 262 q 135 247 141 231 q 148 213 154 191 l 198 154 l 85 423 l 76 443 q 53 445 38 452 q 23 459 14 467 q 3 477 -2 489 l 143 489 l 161 431 l 265 183 l 302 166 l 337 169 l 448 420 l 458 443 q 435 445 420 452 q 405 459 396 467 q 385 477 379 489 l 506 488 l 551 489 z m 312 91 l 303 92 l 326 144 l 310 143 l 277 156 l 303 92 l 298 91 l 309 90 z"},"O":{"x_min":0,"x_max":645,"ha":645,"o":"m 557 649 q 580 579 594 512 q 600 483 604 452 q 609 422 610 392 q 612 363 610 336 q 607 308 599 286 q 589 229 569 181 q 560 160 548 140 q 537 119 522 100 q 507 82 488 68 q 470 53 447 46 q 403 22 354 11 q 312 1 259 2 q 206 2 151 29 q 135 44 118 62 q 104 77 86 96 q 69 115 53 136 q 51 126 52 117 q 54 108 56 101 q 58 93 61 86 q 55 94 50 106 q 46 117 43 128 q 40 140 39 148 q 38 157 38 159 q 17 188 10 212 q 0 284 0 359 q 0 423 8 498 q 17 574 46 643 q 67 679 87 709 q 104 735 124 758 q 144 782 161 790 q 205 798 248 802 q 285 805 326 804 q 366 802 398 790 q 421 779 444 764 q 464 751 486 734 q 509 716 528 694 l 569 676 q 571 670 575 666 q 579 661 584 659 q 589 655 596 654 q 589 653 581 657 q 577 659 575 662 q 574 660 575 656 q 576 652 578 647 q 580 642 583 635 q 581 637 578 642 q 575 648 572 654 q 569 659 567 664 q 565 669 564 669 q 563 670 556 672 q 549 674 542 676 q 551 662 557 649 z m 498 178 q 511 196 522 218 q 531 237 540 263 q 548 289 552 319 q 538 297 527 279 q 517 264 510 250 q 502 236 503 233 z m 551 391 q 554 426 547 467 q 540 508 530 543 q 519 583 504 624 q 477 660 455 682 l 432 705 q 423 717 410 724 q 396 732 380 736 q 364 741 346 742 q 329 743 312 743 q 272 742 227 734 q 194 727 170 708 q 147 688 132 668 q 114 643 102 615 q 93 598 87 569 q 93 574 102 584 q 112 593 124 613 l 146 650 q 140 634 134 619 q 129 606 122 592 q 116 577 108 565 q 101 554 94 548 q 86 543 81 541 q 73 502 68 458 q 63 415 60 377 q 56 333 55 290 q 53 284 64 260 q 76 235 90 209 q 107 177 128 140 q 142 115 158 102 q 173 88 186 82 q 201 75 215 74 q 235 68 262 67 q 288 66 311 68 q 338 70 366 74 q 385 80 404 92 q 423 105 438 117 q 456 131 472 147 l 482 230 z"},"(":{"x_min":0,"x_max":281,"ha":281,"o":"m 238 655 q 203 574 187 534 q 171 495 166 479 q 160 461 163 464 q 145 446 134 420 q 123 395 116 366 q 110 337 107 305 q 104 273 104 243 q 103 172 114 94 q 122 20 147 -50 q 172 -119 199 -174 q 231 -238 269 -295 q 231 -274 200 -248 q 170 -222 146 -194 q 121 -166 102 -137 q 83 -108 69 -81 q 36 -18 18 48 q 2 96 0 138 q -1 181 3 213 q 7 251 18 283 q 19 301 34 340 q 50 378 69 417 q 91 463 119 515 q 148 578 176 632 q 203 685 224 725 q 249 772 271 810 z"},"C":{"x_min":0,"x_max":626,"ha":626,"o":"m 389 737 q 351 738 321 732 q 291 726 268 716 q 244 705 226 692 q 209 678 196 663 q 166 629 153 583 l 141 553 q 152 559 168 578 q 184 597 205 641 q 204 632 202 623 q 200 615 198 608 q 197 600 194 595 q 187 579 177 564 q 169 551 157 538 q 145 524 130 515 q 116 457 116 405 q 117 353 124 313 q 132 266 147 226 q 159 188 176 161 q 192 134 212 116 q 231 97 251 86 q 271 75 291 69 q 337 56 386 64 q 431 67 466 86 q 500 105 523 128 q 550 154 569 186 q 579 147 565 117 q 551 87 529 67 q 503 43 468 26 q 398 3 343 4 q 288 4 246 20 q 204 35 174 60 q 144 86 124 112 q 124 104 125 96 q 126 89 128 84 q 130 78 132 72 q 123 83 118 100 q 113 118 111 131 q 102 144 96 156 q 90 167 86 176 q 82 187 78 195 q 59 237 54 289 q 50 341 54 392 q 49 386 44 378 q 40 369 36 361 q 32 351 28 342 q 22 330 20 308 q 19 286 21 265 q 22 239 26 212 q 14 224 9 250 q 4 276 3 303 q 1 334 4 370 l 52 458 l 62 464 q 67 493 72 519 q 76 545 81 564 q 86 586 92 604 q 105 649 126 681 q 148 713 168 734 q 192 758 218 774 q 247 792 284 796 q 322 800 354 798 q 392 795 431 787 q 495 770 528 740 q 560 709 573 679 q 588 644 585 604 q 565 634 544 656 q 523 678 503 692 q 492 694 480 697 q 468 700 457 702 q 445 705 432 707 z m 475 710 q 461 718 450 722 q 440 727 432 730 q 422 734 415 735 l 411 735 l 442 715 q 457 717 475 710 z"},"W":{"x_min":0,"x_max":841,"ha":841,"o":"m 827 796 l 815 761 l 750 560 q 754 546 758 530 q 763 514 768 498 q 772 482 775 468 q 778 455 779 446 q 771 434 764 423 q 758 413 752 403 q 746 393 744 387 q 745 393 748 403 q 752 413 755 423 q 758 433 761 441 q 764 449 766 451 l 734 509 l 579 29 l 579 30 q 575 16 568 8 q 560 0 549 0 q 538 0 530 8 q 523 16 519 30 l 469 185 q 454 188 436 188 l 417 188 l 399 201 l 344 30 q 340 16 332 8 q 325 0 314 0 q 303 0 296 8 q 288 17 284 30 l 261 103 l 180 183 l 177 208 q 175 222 170 238 q 164 253 158 266 q 151 281 142 296 q 151 288 160 272 q 168 257 174 241 q 181 223 188 202 l 243 158 l 162 410 l 52 523 q 50 524 48 538 q 45 552 43 569 l 37 613 q 33 615 30 619 q 26 623 23 627 l 15 637 q 10 646 8 654 q 6 662 6 667 q 6 673 7 679 l 14 652 q 18 641 28 637 q 32 635 36 634 l 31 676 q 30 681 30 687 q 30 693 30 699 q 30 706 29 713 q 32 704 35 696 q 37 689 38 682 q 40 676 41 673 q 42 671 48 655 q 53 639 53 622 q 52 608 56 596 q 59 583 64 572 q 69 560 75 549 q 96 523 111 512 q 126 500 134 495 l 71 691 l 61 721 l 54 744 l 51 755 q 40 760 32 766 q 23 773 17 780 q 10 788 4 797 l 100 797 l 100 795 l 105 779 l 111 762 l 121 730 l 261 294 q 293 289 319 275 q 345 261 355 255 l 401 397 l 286 755 q 275 760 266 766 q 258 773 252 780 q 245 788 239 796 l 335 796 l 335 795 l 338 786 l 346 762 l 365 704 l 432 494 l 516 754 l 513 755 q 502 760 494 766 q 485 773 479 780 q 472 788 466 797 l 592 797 l 580 761 l 463 399 l 526 203 l 549 198 l 582 231 l 751 753 l 748 755 q 737 760 729 766 q 721 773 715 780 q 708 788 702 796 z m 347 231 q 330 241 309 248 q 288 255 273 260 l 314 131 z m 427 213 q 434 211 444 210 q 454 209 462 207 l 432 302 l 408 228 q 416 220 422 216 q 425 214 427 213 z m 565 179 l 549 174 l 533 182 l 549 130 z m 744 387 q 743 385 743 383 q 743 382 742 382 q 742 383 744 387 z"},"A":{"x_min":0,"x_max":639,"ha":639,"o":"m 463 0 q 469 8 476 16 q 482 23 490 30 q 499 36 510 41 l 513 43 l 403 382 q 389 387 376 390 q 363 393 353 394 q 341 395 331 394 q 329 394 322 390 q 315 387 307 383 q 298 379 288 373 l 272 358 l 278 368 l 246 357 q 249 360 258 364 q 268 368 273 372 q 280 376 287 380 q 294 384 300 387 q 307 391 313 394 q 302 397 288 394 q 275 391 260 385 q 246 379 233 372 q 220 364 211 358 l 128 101 l 107 34 l 104 24 l 96 1 l 96 0 l 0 0 q 6 8 13 16 q 19 23 28 30 q 36 36 47 41 l 63 92 l 67 105 l 78 140 l 64 244 l 77 265 q 84 277 89 293 q 94 309 97 323 q 101 340 102 356 q 105 344 102 327 q 100 310 95 293 q 90 274 82 253 l 96 195 l 158 387 l 136 553 q 134 555 140 568 q 147 580 155 595 l 177 635 q 174 641 174 654 l 174 667 q 175 678 178 684 q 181 691 184 696 q 188 701 191 705 l 181 679 q 179 672 180 668 q 181 663 183 659 q 185 655 188 652 l 209 688 q 211 692 214 697 q 218 702 221 707 l 229 719 q 227 710 224 702 q 222 695 220 689 q 217 683 216 680 q 214 678 210 662 q 206 646 195 632 q 187 621 182 608 q 176 596 174 585 q 170 573 170 560 q 172 522 177 504 q 182 485 187 478 l 281 767 q 284 780 292 788 q 300 796 310 796 q 321 796 329 788 q 337 780 340 767 l 464 385 q 473 375 485 362 q 497 349 509 336 q 521 322 532 310 q 542 297 548 289 q 547 275 545 262 q 543 251 542 239 q 541 227 542 220 q 541 226 540 236 q 538 247 536 258 q 535 268 534 276 q 533 285 534 287 l 484 321 l 576 35 l 588 0 z m 229 412 q 237 417 246 421 q 255 425 263 428 q 272 432 281 435 l 270 447 q 262 452 257 462 q 252 472 250 478 z m 313 444 q 333 446 352 442 q 371 438 386 433 l 311 666 l 259 507 q 262 490 265 481 q 268 472 271 468 q 275 464 278 463 q 283 461 290 458 q 296 455 301 452 q 307 448 313 444 z m 542 220 q 542 218 542 218 q 543 217 543 216 l 543 214 q 543 218 542 220 z"},"f":{"x_min":0,"x_max":397,"ha":397,"o":"m 132 565 l 132 487 q 147 487 176 486 q 205 485 237 481 q 269 477 299 470 q 329 464 346 452 q 309 455 272 455 q 240 455 202 452 q 165 449 132 440 l 132 184 l 132 148 l 132 103 l 132 31 l 132 2 l 99 2 l 71 2 l 13 2 q 13 8 19 15 q 25 22 32 29 q 40 36 49 42 q 58 48 64 52 l 64 103 l 64 132 l 21 214 l 25 238 q 27 252 26 268 q 25 283 23 297 q 20 313 17 329 q 23 319 26 303 q 29 287 31 270 q 33 251 33 229 l 64 182 l 64 184 l 64 462 q 52 470 40 482 q 28 493 19 510 q 25 508 32 505 q 43 501 64 496 l 64 565 l 64 635 l 64 638 q 67 669 73 695 q 78 718 87 739 q 96 760 112 768 q 129 778 147 785 q 162 791 179 796 q 196 801 210 799 q 237 798 264 787 q 287 777 314 756 q 342 735 367 695 q 371 679 374 663 q 376 649 376 634 q 377 620 375 609 q 365 632 352 651 q 341 668 326 683 q 310 698 293 703 l 279 710 q 272 713 264 716 q 256 720 245 723 l 189 710 l 164 695 l 135 670 q 132 655 132 638 l 132 635 z m 160 723 q 157 719 153 715 q 147 708 141 692 q 153 701 172 712 q 190 723 215 729 q 201 731 188 730 q 174 728 160 723 z"},"Q":{"x_min":0,"x_max":663,"ha":663,"o":"m 573 43 q 586 20 594 17 q 601 14 606 20 q 611 26 613 43 q 618 17 613 8 q 608 0 600 0 q 591 0 578 9 q 548 26 528 40 q 508 55 494 67 q 473 51 451 44 q 405 20 356 9 q 313 -1 260 0 q 207 1 151 28 q 135 42 118 60 q 104 75 86 94 q 69 113 53 134 q 51 124 52 115 q 53 106 55 99 q 57 91 60 84 q 54 92 50 104 q 45 115 42 126 q 39 137 38 146 q 37 154 37 156 q 27 170 20 184 q 13 197 10 209 q 0 281 -1 356 q -2 420 7 495 q 16 570 45 639 q 66 675 86 705 q 103 731 124 754 q 144 778 161 786 q 206 794 249 798 q 286 801 328 799 q 369 797 401 786 q 424 775 448 760 q 468 747 490 729 q 513 711 532 689 l 573 672 q 576 660 588 655 q 593 651 601 650 q 593 649 585 653 q 581 655 579 658 q 578 656 579 652 q 580 648 582 643 q 584 638 587 631 q 585 633 582 638 q 579 644 576 650 q 573 655 571 660 q 569 665 568 665 q 568 666 561 668 q 554 669 546 671 q 554 660 561 645 q 584 575 598 509 q 604 480 608 450 q 613 420 614 390 q 616 361 614 334 q 612 306 604 284 q 599 256 590 227 q 582 202 570 172 q 558 143 540 116 z m 502 175 q 515 193 526 215 q 535 234 544 260 q 552 286 556 316 q 542 294 531 276 q 521 261 514 248 q 506 234 507 231 z m 368 72 q 395 81 420 99 q 446 117 461 131 q 464 154 458 176 q 453 199 445 217 q 436 238 424 257 q 441 259 459 253 q 477 247 491 240 l 555 388 q 558 423 551 464 q 544 505 534 540 q 523 580 508 620 q 494 638 482 652 q 469 667 458 678 l 435 701 q 426 713 412 720 q 399 728 383 732 q 367 737 349 738 q 331 739 314 739 q 274 738 228 729 q 195 722 171 702 q 147 683 132 663 q 114 639 102 611 q 93 594 87 565 q 93 570 102 580 q 112 590 124 610 l 146 646 q 140 630 134 615 q 129 602 122 588 q 116 573 108 561 q 101 550 93 544 q 85 539 80 537 q 72 499 68 456 q 63 412 60 374 q 56 330 55 287 q 54 284 56 276 q 59 268 64 256 q 69 245 76 232 q 83 219 90 206 q 107 175 129 138 q 143 113 158 100 q 173 86 186 80 q 201 73 216 72 q 236 66 263 65 q 290 64 313 66 q 340 68 368 72 z"},"w":{"x_min":0,"x_max":666,"ha":666,"o":"m 593 240 l 603 145 l 574 93 l 562 73 q 550 40 537 24 q 524 7 512 2 q 499 -3 487 2 q 475 7 465 17 q 440 41 417 93 l 353 289 l 282 82 q 264 40 247 22 q 230 3 215 0 q 200 -2 187 8 q 174 17 164 31 q 154 45 147 60 q 140 76 137 85 l 76 141 l 74 166 q 72 180 66 196 q 60 211 53 224 q 45 239 36 254 q 47 246 56 230 q 65 215 72 199 q 80 181 86 159 l 128 128 l 76 433 q 56 442 40 452 q 26 460 14 470 q 3 480 2 489 l 143 488 l 166 345 l 197 166 l 217 175 q 220 173 224 170 q 227 168 230 166 q 233 163 235 161 l 217 166 l 199 159 l 213 92 l 235 161 l 294 329 q 309 383 327 405 q 334 414 344 418 q 353 421 363 414 q 373 407 384 386 q 395 366 407 328 l 496 91 l 537 339 l 553 436 q 532 444 515 454 q 501 462 489 472 q 477 481 477 490 l 636 490 z m 589 216 l 568 96 q 576 108 583 124 q 590 140 593 157 z"},"-":{"x_min":0,"x_max":340,"ha":340,"o":"m 320 335 q 315 333 306 330 q 298 328 284 326 q 271 323 248 322 q 268 317 288 314 q 307 310 320 308 q 307 290 291 279 q 277 269 259 263 q 241 257 221 265 q 205 270 182 273 q 162 275 132 274 q 103 273 63 265 q 52 263 40 268 q 29 273 19 280 q 8 288 -4 299 q 6 301 17 305 q 27 308 38 314 q 50 319 63 327 l 182 339 q 213 336 240 334 q 263 332 286 332 q 309 331 320 335 z"},"E":{"x_min":0,"x_max":617,"ha":617,"o":"m 525 32 q 535 35 545 40 q 553 45 562 52 q 571 60 576 74 q 578 53 569 37 q 561 23 542 12 q 522 1 483 1 l 150 1 q 134 0 121 2 q 110 4 99 8 q 88 13 83 23 q 79 28 79 37 l 79 101 l 79 130 l 33 213 l 37 237 q 39 251 38 266 q 37 282 35 296 q 32 312 28 329 q 35 319 38 302 q 42 286 44 269 q 46 250 46 228 l 79 181 l 79 191 l 79 374 l 11 502 q 9 503 10 516 q 12 530 14 547 q 17 566 21 590 q 18 592 16 597 q 13 602 11 607 q 8 612 7 618 q 3 638 6 649 q 7 655 10 660 l 9 633 q 10 626 13 622 q 16 617 19 615 q 23 611 26 610 l 32 650 q 33 655 34 660 q 35 666 37 672 q 39 678 40 686 q 41 677 41 669 l 41 645 q 41 643 42 627 q 43 611 38 594 q 34 581 34 568 q 33 555 35 544 q 37 531 40 519 q 51 491 61 476 q 71 461 79 455 l 79 610 l 79 742 l 79 764 q 79 775 88 782 q 96 789 108 789 q 123 792 163 795 q 197 797 261 798 q 325 800 434 798 q 471 798 503 792 q 529 787 554 774 q 578 761 583 737 q 575 743 561 747 q 549 751 530 755 q 511 759 482 761 q 487 755 493 748 q 499 741 500 740 q 501 740 506 740 q 511 739 518 739 q 524 739 530 739 q 536 739 539 738 q 532 738 526 737 q 521 736 516 736 q 512 735 511 733 q 514 732 518 730 q 524 727 528 718 q 523 723 518 727 q 507 734 496 733 l 463 762 l 449 762 q 368 767 303 757 q 275 753 248 745 q 222 737 200 724 q 179 712 165 693 q 151 674 150 649 l 150 464 q 151 451 166 443 q 179 435 207 432 q 235 428 288 435 q 337 435 381 431 q 419 428 458 421 q 496 414 517 400 q 476 403 436 403 q 401 403 362 399 q 322 395 289 384 q 274 380 256 377 q 240 375 220 374 q 199 373 173 378 q 165 376 160 371 q 155 366 151 356 q 147 346 148 329 l 150 156 q 147 133 158 115 q 167 98 189 83 q 211 68 258 61 q 269 59 280 57 q 290 55 302 54 q 314 53 327 53 q 348 55 369 57 q 387 59 408 60 q 430 61 448 62 q 452 62 458 61 q 464 60 470 58 q 477 56 484 54 q 491 49 500 48 q 510 47 519 48 q 530 49 540 52 q 533 47 521 41 q 509 35 494 39 l 493 39 q 485 41 476 42 q 468 43 461 44 q 452 45 445 45 q 436 43 430 40 q 425 38 420 36 q 415 34 416 32 q 438 29 459 27 q 476 25 495 26 q 514 27 525 32 z m 204 756 q 187 752 176 744 q 166 736 160 728 q 153 718 150 707 q 142 732 150 742 q 157 753 169 756 q 183 760 204 756 z m 525 32 q 535 35 545 40 q 553 45 562 52 q 571 60 576 74 q 578 53 569 37 q 561 23 542 12 q 522 1 483 1 l 150 1 q 134 0 121 2 q 110 4 99 8 q 88 13 83 23 q 79 28 79 37 l 79 101 l 79 130 l 33 213 l 37 237 q 39 251 38 266 q 37 282 35 296 q 32 312 28 329 q 35 319 38 302 q 42 286 44 269 q 46 250 46 228 l 79 181 l 79 191 l 79 374 l 11 502 q 9 503 10 516 q 12 530 14 547 q 17 566 21 590 q 18 592 16 597 q 13 602 11 607 q 8 612 7 618 q 3 638 6 649 q 7 655 10 660 l 9 633 q 10 626 13 622 q 16 617 19 615 q 23 611 26 610 l 32 650 q 33 655 34 660 q 35 666 37 672 q 39 678 40 686 q 41 677 41 669 l 41 645 q 41 643 42 627 q 43 611 38 594 q 34 581 34 568 q 33 555 35 544 q 37 531 40 519 q 51 491 61 476 q 71 461 79 455 l 79 610 l 79 742 l 79 764 q 79 775 88 782 q 96 789 108 789 q 123 792 163 795 q 197 797 261 798 q 325 800 434 798 q 471 798 503 792 q 529 787 554 774 q 578 761 583 737 q 575 743 561 747 q 549 751 530 755 q 511 759 482 761 q 487 755 493 748 q 499 741 500 740 q 501 740 506 740 q 511 739 518 739 q 524 739 530 739 q 536 739 539 738 q 532 738 526 737 q 521 736 516 736 q 512 735 511 733 q 514 732 518 730 q 524 727 528 718 q 523 723 518 727 q 507 734 496 733 l 463 762 l 449 762 q 368 767 303 757 q 275 753 248 745 q 222 737 200 724 q 179 712 165 693 q 151 674 150 649 l 150 464 q 151 451 166 443 q 179 435 207 432 q 235 428 288 435 q 337 435 381 431 q 419 428 458 421 q 496 414 517 400 q 476 403 436 403 q 401 403 362 399 q 322 395 289 384 q 274 380 256 377 q 240 375 220 374 q 199 373 173 378 q 165 376 160 371 q 155 366 151 356 q 147 346 148 329 l 150 156 q 147 133 158 115 q 167 98 189 83 q 211 68 258 61 q 269 59 280 57 q 290 55 302 54 q 314 53 327 53 q 348 55 369 57 q 387 59 408 60 q 430 61 448 62 q 452 62 458 61 q 464 60 470 58 q 477 56 484 54 q 491 49 500 48 q 510 47 519 48 q 530 49 540 52 q 533 47 521 41 q 509 35 494 39 l 493 39 q 485 41 476 42 q 468 43 461 44 q 452 45 445 45 q 436 43 430 40 q 425 38 420 36 q 415 34 416 32 q 438 29 459 27 q 476 25 495 26 q 514 27 525 32 z m 204 756 q 187 752 176 744 q 166 736 160 728 q 153 718 150 707 q 142 732 150 742 q 157 753 169 756 q 183 760 204 756 z"},"s":{"x_min":0,"x_max":438,"ha":438,"o":"m 360 208 q 395 186 402 160 q 408 134 402 111 q 395 84 375 57 q 349 34 318 24 q 287 13 260 8 q 228 3 196 4 q 145 6 112 10 q 78 14 57 19 q 32 24 17 32 q 0 46 -2 60 q -3 73 2 84 q 7 97 20 110 q 18 93 28 84 q 38 76 50 71 q 64 66 83 65 q 134 57 172 58 q 209 58 234 63 q 263 68 283 78 q 305 91 316 103 q 328 115 332 125 q 335 135 333 144 q 331 152 325 159 q 312 175 281 187 q 247 201 215 217 q 183 233 158 247 q 128 263 102 278 q 77 290 62 303 q 48 316 41 330 q 34 343 34 356 q 33 370 36 382 q 43 411 69 440 q 108 467 144 480 q 179 492 210 494 q 242 496 269 489 q 296 482 319 470 q 372 443 413 389 q 399 392 388 394 q 377 395 367 402 q 367 395 370 388 q 373 381 378 376 q 382 370 389 364 q 381 366 370 375 q 360 384 348 394 q 337 405 326 414 q 315 424 307 427 q 219 459 151 435 q 143 426 135 416 q 127 405 122 392 q 118 380 118 365 q 119 350 129 332 q 135 327 140 324 q 145 320 150 318 q 154 315 159 313 q 194 296 230 278 q 265 260 294 244 q 328 226 360 208 z m 90 403 q 76 388 84 372 q 91 355 106 341 l 111 392 l 117 404 q 120 409 124 416 q 128 424 135 432 q 121 426 111 420 q 101 415 90 403 z"},">":{"x_min":0,"x_max":332,"ha":332,"o":"m 2 497 l 304 238 l 25 7 q 55 56 87 98 q 114 134 148 170 q 181 205 214 222 q 164 272 122 321 q 104 342 86 365 q 67 388 51 411 q 35 434 22 456 q 9 478 2 497 z"},"l":{"x_min":0,"x_max":334,"ha":334,"o":"m 257 22 q 274 26 282 30 q 289 35 297 46 q 293 33 287 22 q 281 13 272 6 q 262 -1 245 -1 l 105 -1 q 98 -1 92 1 q 87 3 82 6 q 76 9 73 17 l 73 18 q 69 24 69 30 l 69 102 l 69 136 l 27 212 l 31 236 q 33 250 32 266 q 31 282 29 296 q 26 312 22 328 q 29 318 32 302 q 36 285 38 268 q 40 249 40 227 l 69 185 l 69 381 l 5 502 q 3 503 4 517 q 6 531 8 548 q 11 567 15 591 q 12 593 10 598 q 7 602 5 607 q 2 612 1 619 q -3 638 0 650 q 1 656 4 661 l 3 633 q 4 626 7 622 q 10 618 13 616 q 17 613 20 611 l 27 651 q 28 656 28 662 q 29 667 31 673 q 32 679 34 687 q 35 677 35 669 l 35 646 q 35 644 36 628 q 37 611 32 595 q 28 582 28 569 q 27 556 29 545 q 31 532 34 520 q 44 495 53 481 q 62 467 69 459 l 69 751 q 62 755 53 761 q 44 767 36 774 q 27 780 21 787 q 15 794 15 800 l 76 800 l 106 800 l 140 800 l 140 753 l 140 715 q 142 708 146 698 q 149 688 153 679 q 157 670 161 662 q 165 655 169 654 l 140 554 l 140 183 l 140 102 q 142 89 146 78 q 150 68 158 58 q 165 47 177 39 q 179 38 180 37 q 182 36 184 35 q 196 38 214 42 q 231 46 242 50 q 247 48 254 46 q 260 44 268 43 q 275 42 284 42 q 278 39 271 37 q 265 35 256 35 q 246 35 234 38 l 215 24 q 229 21 240 20 q 252 20 257 22 z m 140 687 l 140 654 l 140 598 q 145 612 149 626 q 153 641 155 645 z"},"8":{"x_min":0,"x_max":551,"ha":551,"o":"m 466 334 q 483 308 493 276 q 503 243 500 206 q 496 168 476 125 q 456 82 413 35 q 349 10 286 3 q 259 0 229 0 q 199 1 168 8 q 137 15 107 30 q 77 45 50 70 q 29 92 17 125 q 6 153 2 196 q -2 238 12 298 q 22 329 41 355 q 58 378 86 398 q 114 419 159 425 q 124 440 99 468 q 88 480 78 496 q 69 512 62 532 q 56 553 54 578 q 51 603 55 634 q 67 670 89 702 q 108 729 139 755 q 170 781 219 794 q 235 796 253 796 q 268 796 288 794 q 307 792 329 787 q 331 786 346 783 q 361 780 381 774 q 401 768 422 758 q 442 748 456 733 q 441 742 425 750 q 411 757 394 764 q 377 771 360 776 q 383 766 404 750 q 424 734 439 709 q 473 641 477 583 q 478 558 473 533 q 468 508 452 486 q 437 464 410 446 q 382 429 338 420 q 347 422 362 417 q 378 412 396 401 q 414 390 432 373 q 451 356 466 334 z m 466 552 q 458 529 449 511 q 441 495 432 482 q 422 468 412 466 q 427 469 438 480 q 448 489 456 506 q 464 523 466 552 z m 120 539 q 128 516 150 498 q 171 480 194 466 q 220 450 251 438 q 299 443 329 462 q 359 482 377 502 q 397 526 408 554 q 414 569 414 587 q 413 605 411 621 q 407 639 402 658 q 397 670 385 684 q 373 697 361 708 q 346 721 330 734 q 316 739 293 738 q 270 738 247 735 q 221 731 192 724 l 130 646 q 120 623 117 604 q 114 584 115 570 q 116 553 120 539 z m 140 371 q 119 368 107 356 q 95 345 88 331 q 80 315 77 296 q 82 307 92 320 q 102 334 113 345 q 125 358 140 371 z m 445 185 q 456 217 448 246 q 439 276 423 299 q 405 326 377 350 q 369 361 348 370 q 328 379 306 385 q 280 392 251 398 l 168 370 q 154 365 140 350 q 126 335 114 319 q 100 301 87 278 q 77 264 74 244 q 71 225 71 207 q 71 186 74 164 q 77 148 92 133 q 106 118 123 106 q 142 92 165 79 q 190 66 216 62 q 242 58 262 57 q 286 56 308 60 q 322 62 335 67 q 348 72 359 79 q 373 99 382 127 q 392 155 383 186 q 389 172 393 158 q 396 146 397 132 q 398 119 394 108 q 406 122 416 136 q 425 149 432 160 q 440 173 445 185 z"},"\\":{"x_min":0,"x_max":444,"ha":444,"o":"m 430 -9 q 430 -11 430 -12 q 429 -12 429 -13 l 429 -14 q 429 -12 430 -12 q 430 -11 430 -9 z m 95 721 q 130 657 159 601 q 171 577 184 552 q 196 528 206 506 q 217 483 224 464 q 232 446 235 434 q 264 372 294 317 q 307 293 321 268 q 335 244 349 221 q 363 198 376 178 q 390 158 402 144 q 414 118 422 92 q 429 69 432 42 q 435 15 430 -9 q 430 -6 428 0 q 427 7 421 18 q 415 28 404 42 q 393 57 374 77 q 329 134 289 194 q 272 219 254 247 q 236 275 220 304 q 204 334 190 362 q 177 391 168 418 q 139 485 113 545 q 102 570 90 596 q 78 623 66 647 q 54 671 43 690 q 32 710 23 723 l 4 782 z"},"e":{"x_min":0,"x_max":528,"ha":528,"o":"m 79 237 q 77 225 77 215 q 77 205 76 197 q 75 188 75 181 q 73 178 82 164 q 90 151 100 137 q 111 120 127 100 q 137 86 148 79 q 159 72 168 68 q 179 64 189 63 q 203 60 222 60 q 241 59 258 60 q 277 61 297 63 q 304 65 325 70 q 346 74 368 84 q 381 89 392 96 q 403 103 412 108 q 422 114 431 121 q 430 111 428 100 q 427 88 421 76 q 415 63 402 51 q 389 39 365 27 q 329 13 290 6 q 256 0 214 0 q 173 0 129 17 q 116 26 103 37 q 92 46 78 58 q 64 69 51 82 q 49 76 50 70 q 51 65 53 60 q 55 55 57 51 q 46 62 42 78 q 39 95 39 96 q 23 114 17 128 q 9 171 9 217 q 9 256 16 302 q 22 348 45 390 q 60 412 77 430 q 91 446 107 460 q 123 475 137 480 q 164 484 192 487 q 216 489 246 489 q 276 489 306 484 q 318 481 329 478 q 339 475 350 472 q 362 469 373 464 q 391 453 408 436 q 422 422 437 400 q 452 378 461 348 q 467 332 471 315 q 475 298 475 281 l 475 259 l 130 264 q 110 259 98 252 q 86 244 79 237 z m 138 416 q 133 411 128 404 q 123 398 118 390 q 114 382 109 371 q 110 364 114 354 q 118 345 126 336 q 135 326 148 318 q 161 309 181 304 l 180 304 q 219 302 264 302 q 308 303 344 308 q 379 314 398 327 q 416 340 402 363 q 364 405 321 428 q 303 438 282 444 q 260 451 236 451 q 213 451 188 443 q 163 435 138 416 z m 99 341 q 97 333 96 326 q 96 319 95 311 q 100 311 106 310 q 117 308 134 307 q 126 315 116 324 q 107 333 99 341 z"},"b":{"x_min":0,"x_max":617,"ha":617,"o":"m 515 393 q 533 350 544 310 q 553 275 556 238 q 560 201 548 174 q 536 140 518 110 q 503 84 481 60 q 459 36 429 28 q 408 22 378 17 q 352 12 314 8 q 277 4 227 2 q 207 0 187 0 q 169 -1 148 0 q 126 0 103 2 q 89 4 80 11 q 72 18 72 28 l 72 103 l 72 131 l 26 213 l 31 237 q 33 251 32 266 q 31 282 29 296 q 26 312 22 328 q 29 318 32 302 q 35 286 37 269 q 39 250 39 228 l 72 182 l 72 373 l 5 500 q 3 501 4 514 q 6 527 8 544 q 11 562 14 587 q 12 589 10 594 q 7 599 5 604 q 2 609 1 615 q -3 634 0 646 q 1 652 4 656 l 3 629 q 4 618 12 612 q 16 609 19 607 l 26 647 q 27 651 28 658 q 29 664 31 669 q 33 675 34 682 l 34 665 l 34 642 q 34 639 36 624 q 37 608 32 591 q 27 578 26 566 q 26 553 28 542 q 30 530 33 517 q 45 489 54 474 q 64 460 72 453 l 72 618 l 72 747 q 65 751 56 757 q 46 763 38 770 q 30 776 24 783 q 18 790 18 796 l 78 796 l 108 796 l 142 796 l 142 771 l 142 749 l 142 618 l 142 460 q 155 469 175 476 q 195 483 225 486 q 255 490 296 488 q 336 487 390 479 q 417 468 442 455 q 463 444 484 428 q 504 412 515 393 z m 441 149 l 492 237 q 494 257 489 279 q 484 301 477 320 q 468 342 457 364 q 447 374 438 382 q 429 390 421 396 q 412 403 404 408 q 391 421 366 424 q 341 428 316 428 q 286 427 253 423 q 228 419 210 408 q 193 398 182 387 q 169 374 160 358 q 151 345 145 320 q 150 323 156 328 q 162 334 170 343 l 188 365 q 183 355 178 346 q 169 329 156 313 q 148 305 141 302 q 136 282 134 260 q 131 239 129 222 q 127 202 126 182 q 124 178 132 165 q 141 152 152 138 l 180 100 q 190 86 201 78 q 212 71 222 68 q 233 64 244 64 q 259 61 278 60 q 297 60 314 61 q 334 62 355 64 q 369 68 384 74 q 398 81 409 88 q 422 96 434 104 z m 451 108 q 461 119 470 132 q 478 143 484 159 q 491 175 493 193 q 483 180 474 169 q 466 160 460 152 q 454 144 455 142 z"},"%":{"x_min":0,"x_max":719,"ha":719,"o":"m 597 741 q 586 730 573 712 q 560 693 545 671 q 530 649 514 625 q 499 601 484 577 q 450 522 413 458 q 401 433 382 405 q 364 377 342 348 q 320 319 296 290 q 273 262 250 236 q 196 175 137 115 q 116 98 100 79 q 84 60 74 44 q 63 28 58 16 q 52 4 52 1 q 50 26 60 58 q 69 89 83 118 q 98 151 119 185 q 132 197 150 216 q 167 235 186 258 q 204 282 224 308 q 243 333 261 358 q 303 416 348 483 q 352 494 362 512 q 373 529 386 550 q 400 571 416 594 q 431 617 446 639 q 482 691 525 749 l 623 797 z m 225 506 q 203 496 178 492 q 157 488 130 488 q 104 488 76 499 q 68 505 60 512 q 53 518 44 525 q 36 532 28 540 q 20 548 14 556 q 8 564 6 569 q 1 597 1 626 q 1 651 6 680 q 10 709 24 735 q 33 749 44 760 q 52 770 62 780 q 73 789 81 792 q 103 794 125 796 q 143 797 164 797 q 184 797 200 792 q 217 785 233 776 q 247 768 260 758 q 273 749 280 737 q 291 711 298 685 q 304 663 306 639 q 309 615 301 598 q 296 576 286 558 q 278 542 263 526 q 248 511 225 506 z m 231 565 q 236 571 241 579 q 245 586 249 594 q 253 603 255 614 q 248 606 244 600 q 239 595 236 590 q 233 585 233 584 z m 61 676 q 59 664 58 652 q 56 640 55 630 q 54 619 53 607 q 52 605 56 598 q 61 590 67 582 q 73 572 82 560 q 94 546 106 542 q 112 539 118 540 q 126 538 136 538 q 147 537 157 538 q 168 539 179 540 q 187 542 194 546 q 202 549 208 553 q 215 557 222 562 l 226 588 l 254 638 q 256 649 253 662 q 250 675 246 686 q 242 698 235 711 q 230 716 224 721 q 219 726 215 729 q 210 733 206 736 q 198 744 184 746 q 171 748 157 748 q 141 748 123 745 q 109 743 100 738 q 90 732 84 725 q 77 717 72 708 q 69 704 67 698 q 65 693 63 686 q 67 689 77 699 l 87 712 q 85 706 82 701 q 80 696 76 691 q 73 686 69 682 q 66 678 61 676 z m 680 250 q 691 223 698 197 q 704 175 706 151 q 709 127 701 110 q 696 88 686 70 q 678 54 663 38 q 648 23 625 18 q 603 8 578 4 q 557 0 530 0 q 503 1 476 12 q 468 17 459 24 q 443 35 427 53 q 419 60 413 68 q 407 77 405 82 q 400 109 400 138 q 400 162 404 192 q 409 221 423 247 q 432 261 443 272 q 452 282 462 292 q 472 301 481 304 q 503 306 525 308 q 543 309 564 309 q 584 309 600 304 q 617 298 633 289 q 647 281 660 271 q 672 261 680 250 z m 626 100 l 654 151 q 655 162 652 174 q 650 187 646 198 q 642 210 635 223 q 630 228 624 233 q 619 238 615 242 q 610 246 606 249 q 598 257 584 259 q 571 261 557 261 q 540 261 522 258 q 508 256 498 250 q 489 244 483 237 q 476 229 471 220 q 466 212 463 198 q 465 200 468 203 q 472 206 476 211 l 486 224 l 481 214 q 476 203 469 195 q 465 190 460 188 q 458 176 456 164 q 455 152 454 142 q 453 131 452 119 q 451 117 456 110 q 460 102 466 94 l 482 72 q 492 58 505 54 q 511 51 517 52 q 525 50 536 50 q 546 49 556 50 q 567 51 579 52 q 587 54 594 58 q 602 61 608 65 q 615 69 622 74 z m 631 77 q 636 83 641 91 q 645 98 649 106 q 653 115 655 126 q 649 118 644 112 q 639 107 636 102 q 632 97 633 96 z"},"m":{"x_min":0,"x_max":701,"ha":701,"o":"m 640 283 l 640 219 l 640 125 l 640 -2 l 608 -2 l 575 -2 l 564 -2 l 507 -2 q 507 4 513 10 q 519 17 528 24 q 537 30 546 36 q 556 42 564 46 l 564 359 l 564 385 l 564 391 q 563 400 558 406 q 552 411 545 414 q 537 418 528 420 l 515 420 q 502 419 491 416 q 480 413 472 410 q 462 406 455 401 q 454 400 452 400 q 451 400 450 399 l 450 398 q 448 398 446 396 q 435 388 426 370 q 416 352 409 332 q 401 309 394 283 q 385 248 374 218 q 363 189 352 166 q 340 140 328 118 q 321 127 318 138 q 315 148 313 157 q 311 168 311 178 q 315 238 309 279 q 303 320 293 346 q 285 367 278 378 l 293 346 q 292 347 284 360 q 276 372 262 384 q 247 396 226 402 q 206 408 179 396 l 145 348 l 139 293 l 140 179 l 140 133 l 140 98 l 139 -3 l 109 -3 l 73 -3 l 1 -3 q 1 3 8 10 q 15 17 25 24 q 35 30 46 36 q 57 42 65 46 l 65 98 l 65 127 l 10 210 l 16 233 q 18 247 17 263 q 16 279 13 293 q 9 309 5 325 q 13 315 18 299 q 22 283 24 266 q 26 247 26 225 l 65 178 l 65 179 l 65 309 l 65 438 q 57 442 46 448 q 35 454 25 460 q 15 467 8 474 q 1 482 1 488 l 65 488 l 73 488 l 109 488 l 150 488 l 150 475 q 161 480 174 484 q 187 488 198 487 q 219 489 239 487 q 256 485 276 480 q 296 474 313 460 q 325 449 334 432 q 342 414 346 396 q 351 378 353 362 q 355 346 355 339 q 354 332 356 342 q 357 352 360 368 q 363 384 366 401 q 370 418 374 426 q 390 453 414 466 q 439 479 462 484 q 489 489 519 487 q 531 489 546 484 q 561 479 574 473 q 589 466 604 457 q 617 449 624 429 q 631 409 635 388 q 639 363 640 334 z m 174 408 q 175 417 164 419 q 159 420 151 419 q 146 414 144 405 q 142 396 141 387 q 140 376 141 364 q 142 377 148 386 q 153 394 159 399 q 166 405 174 408 z m 278 378 q 272 388 266 394 q 261 400 258 403 z"},"#":{"x_min":0,"x_max":512,"ha":512,"o":"m 254 2 q 255 2 255 1 q 255 1 254 2 z m 359 221 q 389 215 416 213 q 439 211 462 214 q 485 217 499 230 q 498 220 489 213 q 481 206 464 201 q 448 196 417 196 l 397 196 q 388 196 376 196 q 363 195 348 195 q 338 172 330 156 q 322 141 315 130 q 307 118 300 109 q 280 82 270 62 q 260 43 256 30 q 253 17 254 10 q 254 4 254 2 q 244 25 244 55 q 244 85 249 111 q 254 142 264 172 q 268 178 272 184 q 275 189 278 195 q 248 195 218 195 q 187 195 160 197 q 141 152 127 130 q 119 118 112 109 q 92 82 82 62 q 72 43 68 30 q 65 17 65 10 q 65 4 66 2 q 56 25 56 55 q 56 85 61 111 q 66 142 76 172 q 81 180 85 186 q 89 193 93 201 q 89 201 83 203 q 63 206 48 209 q 34 212 23 214 q 11 217 2 219 q 10 218 24 220 q 37 222 49 224 q 63 227 78 231 q 82 232 86 233 q 90 234 96 235 q 101 236 109 238 q 116 257 120 274 q 123 290 125 302 q 127 316 127 328 q 126 347 134 382 q 142 417 153 457 q 131 459 121 456 q 94 458 70 455 q 50 453 30 446 q 11 439 3 425 q 5 443 13 458 q 20 471 34 482 q 49 492 75 492 l 165 499 q 173 524 180 546 q 186 569 192 586 q 198 606 205 624 l 287 696 l 276 635 q 265 615 254 579 q 243 543 233 502 l 284 503 l 353 498 q 361 523 368 546 q 374 569 380 586 q 386 606 393 624 l 475 696 l 464 635 q 453 613 442 574 q 430 536 419 493 l 428 492 q 454 492 468 480 q 482 469 489 455 q 497 438 498 418 q 493 427 482 434 q 472 440 460 444 q 448 449 435 451 q 422 453 411 454 q 405 427 400 403 q 395 379 391 361 q 387 340 384 321 q 379 298 374 278 q 369 257 364 240 l 386 240 q 394 240 407 235 q 414 232 422 229 q 427 225 436 224 q 445 223 453 224 q 463 224 473 226 q 468 222 459 222 q 450 221 441 221 q 430 221 419 222 q 412 224 406 224 q 400 225 395 226 q 389 227 384 227 q 376 226 371 225 q 366 224 362 224 q 358 223 359 221 z m 269 440 q 274 440 292 442 q 310 443 338 448 q 340 456 341 459 q 325 459 308 458 q 291 456 277 452 z m 298 238 q 305 258 308 274 q 311 290 313 302 q 315 316 315 328 q 314 345 320 375 q 327 405 336 440 q 320 436 304 434 q 289 432 277 433 l 220 445 q 215 419 210 397 q 206 375 203 358 q 199 338 196 321 q 191 299 186 280 q 182 261 177 244 q 187 243 198 243 q 208 243 219 241 q 228 241 239 240 q 248 239 259 238 q 270 238 281 238 z m 67 1 l 66 2 z"},",":{"x_min":0,"x_max":110,"ha":110,"o":"m 95 39 q 92 19 87 1 q 82 -15 74 -33 q 67 -51 53 -64 l 58 3 q 51 1 42 1 q 34 1 25 5 q 19 7 15 11 q 11 14 8 18 q 4 21 4 26 q 2 34 2 43 q 2 51 3 59 q 4 67 9 75 q 11 79 15 83 q 20 90 26 92 q 32 92 39 93 q 44 93 50 94 q 57 94 62 92 q 68 90 72 87 q 76 85 80 82 q 84 79 86 76 q 89 69 91 63 q 93 57 94 50 q 95 44 94 39 l 95 39 z"},"n":{"x_min":0,"x_max":574,"ha":574,"o":"m 512 190 q 513 188 513 185 l 513 148 l 513 31 l 513 2 l 510 2 l 481 2 l 453 2 l 444 2 l 396 2 q 397 14 414 28 q 431 42 445 50 l 447 256 l 447 259 l 447 266 l 398 315 l 378 372 l 383 392 q 379 394 378 395 q 349 407 317 414 q 290 420 256 422 q 223 423 191 414 q 186 412 180 409 q 175 407 168 403 q 162 399 156 394 q 151 385 144 364 q 138 342 147 316 q 144 321 140 326 q 135 334 128 349 l 128 312 l 128 183 l 128 146 l 128 101 l 128 29 l 128 0 l 94 0 l 64 0 l 3 0 q 3 6 9 13 q 15 20 23 27 q 31 34 40 40 q 50 45 57 49 l 57 101 l 57 130 l 11 213 l 15 237 q 17 251 16 266 q 16 282 14 296 q 11 312 7 329 q 14 319 17 302 q 20 286 22 269 q 24 250 24 228 l 57 181 l 57 183 l 57 256 l 57 312 l 57 330 l 57 442 q 50 446 40 452 q 31 457 23 464 q 15 471 9 478 q 3 485 3 491 l 57 491 l 64 491 l 94 491 l 128 491 l 128 465 l 128 462 q 135 465 150 470 q 165 475 184 480 q 203 485 224 488 q 244 492 261 491 q 288 490 318 483 q 344 477 375 464 q 406 450 438 424 q 441 422 445 418 q 448 415 453 411 q 458 407 463 401 q 466 398 469 394 q 472 391 475 388 q 485 372 493 356 q 500 342 505 328 q 510 313 509 301 q 511 290 512 280 q 513 269 513 256 z m 445 286 q 441 306 430 333 q 420 360 397 381 l 405 336 z"},"h":{"x_min":0,"x_max":597,"ha":597,"o":"m 539 192 q 540 190 540 186 l 540 150 l 540 33 l 540 4 l 537 4 l 508 4 l 480 4 l 471 4 l 424 4 q 425 16 442 30 q 458 44 472 52 l 475 258 l 475 267 l 426 315 l 405 372 l 410 392 q 409 393 405 395 q 376 407 344 414 q 317 420 284 422 q 251 424 219 415 q 213 413 208 410 q 203 407 197 403 q 191 399 185 394 q 180 385 174 364 q 167 343 176 317 q 173 322 169 327 q 162 337 157 349 l 157 184 l 157 148 l 157 103 l 157 31 l 157 2 l 123 2 l 93 2 l 33 2 q 33 8 38 15 q 44 22 52 29 q 61 36 70 42 q 79 48 86 52 l 86 103 l 86 132 l 41 214 l 45 238 q 47 252 46 268 q 45 283 43 297 q 40 313 36 329 q 43 319 46 303 q 50 287 52 270 q 54 251 54 229 l 86 182 l 86 184 l 86 258 l 86 331 l 86 375 l 19 501 q 17 502 18 516 q 20 529 22 546 q 25 565 29 589 q 26 591 24 596 q 21 601 19 606 q 16 611 15 617 q 11 636 14 648 q 15 654 18 659 l 17 631 q 18 620 26 614 q 30 611 33 609 l 40 649 q 41 653 42 660 q 43 666 45 671 q 47 677 48 684 l 48 667 q 48 660 48 654 q 49 647 49 644 q 48 642 50 626 q 51 610 46 593 q 42 580 42 568 q 41 555 43 544 q 45 532 48 519 q 59 491 69 476 q 79 461 86 455 l 86 621 l 86 750 q 79 754 70 760 q 61 765 52 772 q 44 779 38 786 q 33 793 33 799 l 93 799 l 123 799 l 157 799 l 157 773 l 157 752 l 157 621 l 157 462 q 164 465 179 470 q 194 475 213 480 q 232 485 252 488 q 272 492 289 491 q 315 490 345 483 q 370 477 402 464 q 433 451 465 425 q 469 423 473 419 q 480 413 491 401 q 494 398 497 395 q 500 392 502 388 q 512 372 520 357 q 527 343 532 328 q 537 314 536 302 q 540 283 540 258 z m 472 287 q 469 307 458 334 q 448 360 424 381 l 432 337 z"},"z":{"x_min":0,"x_max":503,"ha":503,"o":"m 476 64 q 476 46 470 32 q 464 20 450 10 q 437 1 408 1 l 167 1 q 117 2 80 9 q 64 12 50 16 q 35 21 24 28 q 13 35 8 44 q 2 53 5 65 l 16 81 l 91 159 l 115 243 l 135 257 q 146 265 157 277 q 168 289 176 301 q 186 315 194 330 q 192 318 182 303 q 173 288 162 275 q 150 259 134 244 l 126 196 l 328 407 q 320 415 312 423 q 303 431 299 439 q 288 437 278 436 q 269 435 261 434 q 252 433 245 432 q 216 424 194 424 q 172 424 157 426 q 139 429 126 435 q 103 448 82 453 q 60 458 43 458 q 23 458 4 454 q 13 468 32 476 q 51 483 70 485 q 92 488 118 486 l 267 491 q 284 492 319 492 q 354 493 389 494 q 429 495 476 495 l 455 451 l 441 426 l 122 101 q 132 93 162 78 q 191 62 245 53 q 253 52 261 50 q 268 48 276 47 q 285 46 295 46 q 310 48 326 50 q 340 52 354 52 q 369 53 383 54 q 385 54 390 53 q 394 52 399 50 q 404 48 409 47 q 414 42 421 42 q 428 41 434 42 q 441 43 449 45 q 444 41 436 36 q 427 30 416 34 l 415 34 q 403 37 392 39 q 386 40 380 40 q 374 38 370 35 q 366 33 362 31 q 359 29 360 28 q 376 25 391 24 q 404 23 417 23 q 430 23 438 28 q 446 31 453 35 q 459 39 466 46 q 472 53 476 64 z m 316 440 q 323 429 336 416 l 358 438 l 359 438 q 349 440 338 440 q 327 440 316 440 z m 22 37 q 27 32 34 28 q 48 19 67 18 l 81 16 q 86 15 91 14 q 96 13 98 13 q 96 13 83 16 q 70 20 56 27 q 41 34 30 45 q 19 56 21 72 q 17 67 15 62 q 11 51 22 37 z"},"B":{"x_min":0,"x_max":621,"ha":621,"o":"m 388 423 q 426 414 459 392 q 488 372 517 337 q 546 302 563 242 q 576 188 569 141 q 566 121 558 101 q 550 81 535 64 q 520 46 497 32 q 474 19 441 12 q 418 9 374 6 q 336 4 271 3 q 206 2 105 4 q 92 4 84 12 q 75 19 75 30 l 75 95 l 75 124 l 28 210 l 33 234 q 35 248 34 264 q 33 281 31 295 q 28 312 24 328 q 31 318 34 301 q 38 284 40 267 q 42 247 42 225 l 75 177 l 75 187 l 75 375 l 6 505 q 4 506 6 520 q 7 535 9 552 q 12 571 16 596 q 13 598 10 603 q 8 608 6 613 q 3 618 2 625 q -2 645 1 657 q 2 663 5 668 l 4 639 q 5 632 8 628 q 11 623 14 621 q 18 617 21 616 l 28 658 q 30 668 33 680 q 35 687 36 694 l 36 676 q 36 669 36 662 q 37 655 37 652 q 36 650 38 633 q 39 616 34 600 q 29 586 28 573 q 28 560 30 549 q 32 536 35 524 q 47 495 58 480 q 68 464 75 457 l 75 616 l 75 752 l 75 774 q 75 785 84 792 q 92 800 105 800 q 189 802 259 800 q 289 799 318 798 q 348 796 374 793 q 399 790 417 786 q 435 782 443 776 q 455 769 467 759 q 478 751 490 738 q 503 726 514 709 q 517 706 526 697 q 534 688 543 678 q 552 667 559 658 q 566 648 568 644 q 570 633 572 622 q 574 613 575 603 q 576 593 576 587 q 573 598 570 609 q 568 618 565 627 q 562 636 559 643 q 557 644 554 647 q 552 649 548 652 q 544 654 540 657 q 548 631 548 604 q 546 563 528 528 q 513 497 480 467 q 448 437 388 423 z m 145 748 q 142 728 142 694 q 141 661 142 629 q 143 591 145 550 q 149 535 160 522 q 172 509 184 498 q 198 486 215 476 q 234 468 250 464 q 267 459 279 457 q 293 454 304 455 q 347 451 379 464 q 411 478 431 495 q 455 515 471 542 q 486 584 481 616 q 476 649 465 672 q 452 698 430 718 q 392 748 343 756 q 294 765 250 763 q 198 760 145 748 z m 142 460 q 142 456 152 455 q 162 454 175 454 q 190 454 209 455 q 193 460 181 470 q 169 479 160 490 q 149 502 142 517 z m 460 88 q 471 93 478 104 q 485 114 489 125 q 493 137 495 152 q 491 153 486 150 q 480 148 474 145 q 467 141 460 137 q 459 133 459 125 q 459 117 459 109 q 459 99 460 88 z m 502 180 q 503 182 504 186 q 504 191 505 196 q 506 202 506 209 q 506 257 491 288 q 476 319 457 339 q 435 361 408 374 l 422 335 q 426 336 432 334 q 437 331 443 327 q 449 323 457 316 q 444 324 430 324 q 423 324 417 323 q 416 325 412 332 q 409 339 404 347 q 399 356 392 366 q 388 370 376 377 l 362 385 q 309 393 268 388 q 227 384 199 376 q 166 366 142 352 q 140 351 140 340 q 139 329 138 312 q 138 295 138 273 q 139 251 139 229 q 140 176 142 109 q 187 80 234 70 q 280 60 318 59 q 362 58 404 66 q 403 69 408 82 q 414 94 421 108 q 429 124 438 144 q 439 146 449 151 q 459 156 471 163 q 485 170 502 180 z"},"K":{"x_min":0,"x_max":571,"ha":571,"o":"m 485 111 q 496 88 508 68 q 519 47 529 32 q 540 14 552 0 q 534 2 518 12 q 502 23 489 34 q 474 47 461 64 q 457 71 452 78 q 447 86 441 94 q 433 96 420 100 q 407 103 394 108 q 381 113 371 119 q 361 125 358 131 q 347 147 336 163 q 327 177 317 193 q 307 209 302 223 q 286 235 264 256 q 241 277 219 299 q 197 321 180 339 q 162 357 156 364 q 153 360 150 356 q 148 353 146 350 l 146 185 l 146 149 l 146 104 l 146 32 l 146 2 l 112 2 l 82 2 l 21 2 q 21 8 27 15 q 33 22 42 29 q 50 36 59 42 q 68 48 75 52 l 75 104 l 75 132 l 29 215 l 34 239 q 36 253 35 268 q 34 284 32 298 q 29 314 25 331 q 32 321 35 304 q 38 288 40 271 q 42 252 42 230 l 75 183 l 75 185 l 75 376 l 7 504 q 5 505 7 518 q 9 532 11 549 q 14 568 17 592 q 11 597 8 608 q 5 613 4 620 q 0 639 3 651 q 4 657 7 662 l 6 634 q 7 623 15 617 q 19 614 22 612 l 29 652 q 31 663 34 674 q 36 680 37 687 l 37 670 q 37 663 38 656 q 38 650 38 647 q 37 645 38 629 q 40 613 35 596 q 30 583 30 570 q 29 557 31 546 q 33 533 36 521 q 48 493 58 478 q 68 464 75 457 l 75 623 l 75 753 q 68 757 59 763 q 50 769 42 776 q 33 782 27 789 q 21 796 21 802 l 82 802 l 112 802 l 146 802 l 146 777 l 146 755 l 146 623 l 146 440 q 164 460 184 482 q 203 503 221 522 q 239 540 254 554 q 269 567 277 572 q 309 600 338 628 q 362 652 386 680 q 411 709 422 733 q 435 751 450 766 q 463 779 480 790 q 496 800 514 802 q 505 789 495 773 q 487 759 476 741 q 466 723 455 701 q 455 690 456 677 q 456 664 457 653 q 458 640 460 627 q 459 621 456 616 q 452 612 447 609 q 442 605 435 603 q 426 605 415 598 q 404 591 394 583 q 383 573 371 561 q 376 569 386 580 q 396 591 407 602 q 419 614 434 628 q 435 631 435 642 q 435 653 434 663 q 426 651 414 633 q 402 615 386 595 q 370 575 351 554 q 332 533 311 514 q 292 499 273 481 q 256 466 236 448 q 217 429 198 410 q 212 391 238 367 q 263 343 289 320 q 318 294 351 267 q 380 242 404 214 q 429 187 447 164 q 468 137 485 111 z m 362 144 q 373 137 384 130 q 394 124 406 118 q 418 111 431 107 q 414 126 394 145 q 374 164 357 179 q 337 197 317 213 q 316 214 316 214 q 315 214 314 215 q 321 204 328 192 q 336 181 343 170 q 350 160 355 152 q 360 145 362 144 z"},"R":{"x_min":0,"x_max":595,"ha":595,"o":"m 546 662 q 554 636 554 609 q 555 566 539 529 q 525 497 494 466 q 463 435 403 421 l 349 406 q 322 403 288 401 q 255 399 224 394 q 242 374 265 352 q 288 331 309 313 q 334 292 359 272 q 388 246 412 218 q 437 191 455 168 q 476 141 493 115 q 504 92 515 72 q 526 51 536 36 q 547 18 559 4 q 542 6 526 16 q 510 27 497 38 q 482 51 469 68 q 462 81 449 98 q 441 100 428 104 q 415 108 402 113 q 389 118 378 124 q 368 130 365 136 q 354 152 343 168 q 334 182 324 198 q 315 214 310 228 q 291 242 266 266 q 240 291 217 314 q 190 341 160 372 l 160 373 q 154 368 149 362 l 149 187 l 149 151 l 149 106 l 149 34 l 149 4 l 115 4 l 85 4 l 24 4 q 24 10 30 17 q 36 24 44 31 q 52 38 62 44 q 71 50 78 54 l 78 106 l 78 134 l 32 218 l 37 242 q 39 256 38 272 q 37 287 35 301 q 32 317 28 334 q 35 324 38 308 q 41 291 43 274 q 45 255 45 233 l 78 186 l 78 187 l 78 379 l 10 507 q 8 508 10 522 q 11 535 13 552 q 16 571 20 595 q 17 597 14 602 q 12 607 10 612 q 7 617 6 624 q 2 643 5 655 q 6 661 9 665 l 9 638 q 10 626 18 620 q 22 616 25 615 l 32 656 q 33 660 34 666 q 34 673 36 678 q 37 684 39 691 q 40 682 40 674 l 40 650 q 40 648 42 632 q 43 616 38 599 q 33 586 32 573 q 32 560 34 549 q 36 537 39 525 q 51 496 61 482 q 71 467 78 460 l 78 466 l 78 621 l 78 627 l 78 757 l 78 759 l 78 779 l 78 781 q 78 793 91 800 q 91 801 92 801 q 93 802 94 802 q 95 802 96 803 q 103 806 113 806 q 119 806 122 805 q 137 805 164 806 q 192 806 226 806 q 259 806 294 804 q 330 803 362 800 q 393 797 416 792 q 439 788 448 781 q 460 774 472 764 q 483 756 496 744 q 508 731 520 714 z m 438 111 q 421 131 402 150 q 382 169 365 184 q 345 202 325 218 q 324 218 322 220 q 328 209 336 197 q 344 185 350 174 q 357 164 362 157 q 367 150 369 149 q 380 141 391 134 q 401 128 413 122 q 425 115 438 111 z m 149 460 q 154 458 164 458 q 175 458 186 458 q 198 458 213 459 q 188 466 172 485 q 155 504 149 515 z m 476 547 q 491 589 486 622 q 481 654 470 677 q 457 703 435 723 q 410 743 380 753 q 350 763 319 766 q 288 770 258 768 q 228 767 204 764 q 181 761 166 757 q 151 753 149 753 l 149 627 l 149 553 q 153 538 164 525 q 176 512 188 502 q 202 491 218 480 q 238 472 254 468 q 270 463 282 461 q 296 458 308 459 q 351 455 382 469 q 414 483 435 500 q 460 520 476 547 z"},"T":{"x_min":0,"x_max":580,"ha":580,"o":"m 486 786 q 517 786 532 770 q 547 754 553 735 q 560 712 558 684 q 551 696 538 706 q 525 715 510 722 q 495 728 480 732 q 465 737 454 739 q 443 736 426 732 q 409 727 390 722 q 370 718 350 716 q 331 713 316 714 l 316 604 l 316 183 l 316 147 l 316 101 l 316 29 l 316 0 l 282 0 l 252 0 l 191 0 q 191 6 197 13 q 203 20 211 27 q 219 34 228 40 q 238 46 245 50 l 245 101 l 245 130 l 199 213 l 204 237 q 206 251 205 266 q 204 282 202 296 q 199 312 195 329 q 202 319 205 302 q 208 286 210 269 q 212 250 212 228 l 245 181 l 245 183 l 245 374 l 177 502 q 175 503 177 516 q 179 530 181 547 q 184 566 187 590 q 184 592 182 596 q 179 601 177 606 q 174 611 173 618 q 171 628 171 636 q 171 644 173 649 q 175 655 177 660 l 176 632 q 177 621 185 615 q 189 612 192 610 l 199 650 q 201 661 204 672 q 206 678 207 685 l 207 668 l 207 645 q 207 643 208 627 q 210 611 205 594 q 200 581 200 568 q 199 555 201 544 q 203 531 206 519 q 218 491 228 476 q 238 462 245 455 l 245 604 l 245 724 q 231 728 214 732 q 198 737 182 740 q 165 743 151 744 q 137 745 128 742 q 120 741 111 739 q 103 737 93 735 q 83 733 72 729 q 55 715 43 703 q 36 696 29 690 q 39 708 50 721 q 35 714 22 705 q 10 696 4 684 q 2 712 9 735 q 14 754 29 770 q 44 786 75 786 l 281 801 z m 316 724 q 330 724 348 727 q 379 730 439 742 l 433 742 q 424 745 410 744 q 396 743 380 740 q 363 737 346 732 q 330 728 316 724 z"},"P":{"x_min":0,"x_max":571,"ha":571,"o":"m 540 656 q 544 643 546 630 q 548 617 548 602 q 548 559 533 522 q 519 490 488 460 q 458 429 398 415 l 344 400 q 318 397 287 395 q 256 393 228 389 q 199 385 176 378 q 153 370 144 356 l 144 182 l 144 145 l 144 100 l 144 28 l 144 -1 l 110 -1 l 80 -1 l 19 -1 q 19 5 25 12 q 31 19 40 26 q 48 32 57 38 q 66 44 73 48 l 73 100 l 73 129 l 27 212 l 32 236 q 34 250 33 266 q 32 281 30 295 q 27 311 23 328 q 30 318 33 302 q 36 285 38 268 q 40 249 40 227 l 73 180 l 73 182 l 73 373 l 5 501 q 3 502 5 516 q 7 529 9 546 q 12 565 15 589 q 9 594 6 605 q 3 610 2 617 q -2 636 1 648 q 2 654 5 659 l 4 631 q 5 620 13 614 q 17 611 20 609 l 27 649 q 29 660 32 671 q 34 677 35 684 l 35 667 q 35 660 36 654 q 36 647 36 644 q 35 642 36 626 q 38 610 33 593 q 28 580 28 567 q 27 554 29 543 q 31 530 34 518 q 46 490 56 475 q 66 460 73 454 l 73 460 l 73 615 l 73 620 l 73 750 l 73 753 l 73 772 l 73 774 q 73 786 86 794 q 86 794 87 795 q 89 795 90 796 q 90 796 91 796 l 92 797 q 99 800 109 800 q 111 800 113 800 q 115 799 117 799 q 132 799 160 800 q 187 800 220 800 q 254 799 290 798 q 325 797 356 794 q 387 791 410 786 q 434 782 443 775 q 455 768 467 758 q 478 750 490 738 q 503 725 514 708 z m 144 454 q 149 452 160 452 q 170 452 181 452 q 193 452 208 453 q 183 460 167 479 q 151 498 144 508 z m 470 541 q 485 583 480 616 q 475 648 464 671 q 451 697 429 716 q 392 746 344 755 q 295 764 252 762 q 208 761 178 754 q 147 748 144 747 l 144 620 l 144 547 q 148 532 160 519 q 171 506 183 496 q 197 485 213 474 q 233 466 249 462 q 265 457 277 455 q 291 452 303 453 q 346 449 378 463 q 410 477 430 494 q 454 514 470 541 z"},"|":{"x_min":0,"x_max":142,"ha":142,"o":"m 123 682 q 119 664 116 618 q 114 573 112 512 q 111 450 110 378 q 110 305 110 232 q 110 60 113 -146 q 96 -189 88 -222 q 81 -254 78 -277 q 74 -303 76 -323 q 56 -299 43 -264 q 30 -228 22 -196 q 12 -158 6 -118 q 10 -104 14 -64 q 17 -24 19 32 q 21 88 22 155 q 24 222 25 290 q 27 449 27 642 l 97 847 l 123 682 z"},"t":{"x_min":0,"x_max":497,"ha":497,"o":"m 416 482 q 442 482 456 466 q 469 451 474 432 q 480 410 478 383 q 470 400 452 410 q 435 421 417 428 q 396 436 371 440 q 363 442 351 441 q 339 440 326 438 q 312 435 298 431 q 284 427 272 423 l 272 411 q 279 412 306 415 q 333 418 380 429 l 398 429 q 374 420 351 414 q 331 409 310 404 q 288 400 272 401 l 272 179 l 272 143 l 272 99 l 272 28 l 272 -1 l 237 -1 l 207 -1 l 145 -1 q 145 5 151 12 q 157 19 166 26 q 174 32 183 38 q 192 43 199 47 l 199 99 l 199 127 l 153 209 l 157 232 q 159 246 158 262 q 157 277 155 291 q 152 307 148 323 q 155 313 158 297 q 162 281 164 264 q 166 245 166 223 l 199 177 l 199 179 l 199 425 q 176 433 149 438 q 122 444 108 440 q 83 436 62 428 q 44 421 26 410 q 8 400 0 383 q -2 410 4 432 q 9 451 22 466 q 35 482 62 482 l 199 493 l 199 568 q 192 572 182 578 q 173 583 164 590 q 156 597 150 604 q 144 611 144 617 l 206 617 l 237 617 l 272 617 l 272 588 l 272 494 l 416 482 z"},"M":{"x_min":0,"x_max":740,"ha":740,"o":"m 644 802 q 659 802 670 795 q 680 788 680 777 l 680 755 l 680 623 l 680 184 l 680 148 l 680 103 l 680 31 l 680 1 l 645 1 l 616 1 l 555 1 q 555 7 561 14 q 567 21 575 28 q 583 35 592 41 q 602 47 609 51 l 609 103 l 609 184 l 609 468 q 605 472 599 476 q 593 479 586 478 q 581 474 576 470 q 571 466 566 462 q 562 458 558 456 l 438 147 q 420 89 403 70 q 386 51 371 56 q 356 60 344 80 q 331 101 323 121 l 143 587 l 143 184 l 143 148 l 143 103 l 143 31 l 143 1 l 109 1 l 79 1 l 19 1 q 19 7 25 14 q 31 21 39 28 q 47 35 56 41 q 66 47 73 51 l 73 103 l 73 131 l 27 214 l 31 238 q 33 252 32 268 q 31 284 29 298 q 26 314 22 330 q 29 320 32 304 q 36 287 38 270 q 40 251 40 229 l 73 182 l 73 184 l 73 376 l 5 503 q 3 504 4 518 q 6 532 8 549 q 11 568 15 592 q 12 594 10 598 q 7 603 5 608 q 2 613 1 620 q -3 639 0 651 q 1 657 4 661 l 3 634 q 4 627 7 623 q 10 619 13 616 q 17 612 20 611 l 26 652 q 27 656 28 662 q 29 669 31 674 q 33 680 34 687 q 35 678 35 670 l 35 647 q 35 644 36 628 q 37 612 32 596 q 28 583 28 570 q 27 557 29 546 q 31 533 34 521 q 45 492 55 478 q 65 463 73 456 l 73 623 l 73 755 l 73 777 q 73 788 83 795 q 93 802 108 802 q 116 802 120 801 q 128 800 134 797 q 140 794 142 788 l 194 653 l 376 182 l 395 233 q 389 250 388 263 q 387 276 389 284 q 391 294 395 300 q 402 304 410 328 q 417 352 423 380 q 430 413 437 452 q 440 426 436 400 q 432 374 427 353 q 420 328 411 305 q 409 298 410 290 q 410 283 412 277 l 558 653 l 610 788 q 614 799 632 801 q 636 802 644 802 z m 588 497 q 590 495 594 495 q 600 493 609 498 l 609 588 l 569 486 z"},"g":{"x_min":0,"x_max":565,"ha":565,"o":"m 496 -130 q 496 -132 496 -148 q 497 -165 496 -186 q 494 -208 490 -230 q 487 -251 478 -263 q 477 -266 473 -270 q 470 -273 465 -278 q 460 -282 452 -286 q 436 -294 416 -298 q 396 -301 378 -303 q 357 -305 335 -304 q 278 -305 238 -299 q 198 -293 172 -285 q 141 -276 120 -265 q 106 -256 95 -240 q 85 -226 77 -205 q 69 -184 68 -154 q 75 -130 85 -109 q 93 -91 104 -73 q 116 -55 130 -45 q 125 -69 121 -90 q 118 -108 116 -125 q 114 -142 116 -149 q 122 -169 133 -187 q 143 -203 160 -218 q 176 -234 202 -244 q 256 -265 294 -265 q 331 -265 356 -252 q 380 -240 394 -220 q 408 -200 415 -180 l 389 -134 l 394 -111 q 396 -97 395 -82 q 394 -66 392 -52 q 389 -36 385 -20 q 392 -30 395 -46 q 398 -62 400 -79 q 402 -98 402 -119 l 422 -148 q 423 -143 424 -140 q 424 -136 424 -133 l 424 -127 l 426 -60 l 426 31 q 413 22 392 16 q 372 9 342 6 q 313 2 272 4 q 232 5 178 13 q 151 24 126 37 q 105 48 84 64 q 64 79 53 98 q 35 141 24 181 q 14 216 10 254 q 7 291 20 318 q 31 352 49 382 q 64 408 86 432 q 109 455 139 464 q 160 470 190 475 q 216 480 253 484 q 290 488 340 490 q 359 490 380 491 q 398 491 420 492 q 442 492 465 490 q 478 488 487 482 q 496 475 496 465 l 496 389 l 496 331 l 496 288 l 497 -66 l 496 -67 z m 380 152 l 431 240 q 433 260 428 282 q 423 304 416 323 q 407 345 396 367 q 386 377 377 385 q 368 393 360 399 q 351 406 343 411 q 330 424 305 428 q 280 433 254 432 q 224 431 191 426 q 167 422 150 412 q 132 402 121 391 q 108 378 99 362 q 91 349 83 323 q 95 331 108 346 l 126 368 q 121 359 116 350 q 111 342 106 333 q 101 324 95 317 q 88 309 79 305 q 74 285 72 264 q 69 242 67 225 q 65 205 64 185 q 62 181 70 168 q 79 155 90 141 l 118 103 q 129 89 140 82 q 151 74 161 71 q 172 67 183 67 q 198 63 217 63 q 236 63 253 64 q 273 65 294 67 q 308 71 322 78 q 337 84 348 91 q 361 99 373 107 z m 390 117 q 402 121 412 132 q 420 141 428 157 q 435 173 435 201 l 401 154 z m 465 -269 q 472 -254 477 -242 q 482 -231 484 -221 q 487 -211 486 -206 q 475 -224 464 -240 q 455 -254 446 -266 q 436 -278 428 -282 q 437 -280 445 -277 q 461 -272 465 -269 z"},"j":{"x_min":0,"x_max":482,"ha":482,"o":"m 390 -122 q 390 -124 390 -141 q 391 -158 390 -180 q 389 -201 386 -224 q 382 -246 373 -259 q 372 -263 368 -267 q 365 -271 360 -276 q 355 -280 347 -285 q 331 -294 311 -298 q 291 -302 273 -304 q 252 -306 230 -306 q 174 -308 138 -299 q 103 -290 82 -279 q 57 -266 45 -249 q 35 -236 26 -219 q 18 -205 12 -185 q 5 -165 2 -139 q -2 -111 -1 -85 q 0 -63 4 -41 q 9 -19 23 -8 q 22 -21 21 -32 q 20 -42 20 -52 q 20 -63 22 -71 q 25 -105 34 -134 q 42 -160 56 -184 q 71 -209 97 -220 q 139 -238 170 -243 q 202 -248 225 -243 q 248 -238 264 -226 q 280 -213 291 -197 q 316 -160 319 -102 l 319 -50 l 319 114 l 270 203 l 274 227 q 276 241 276 257 q 275 273 273 287 q 270 303 266 319 q 273 309 276 292 q 279 276 281 259 q 283 240 283 218 l 319 166 l 319 316 l 319 445 q 312 449 303 454 q 294 460 286 467 q 277 474 272 481 q 266 488 266 494 l 326 494 l 356 494 l 390 494 l 390 468 l 390 447 l 390 349 l 390 316 l 390 -51 z m 360 -265 q 367 -248 372 -234 q 377 -222 380 -210 q 382 -199 381 -194 q 370 -215 359 -233 q 350 -248 340 -262 q 331 -276 323 -280 q 332 -277 340 -274 q 356 -269 360 -265 z m 318 614 q 312 616 308 620 q 304 623 300 626 q 297 630 297 635 q 295 643 295 652 q 295 660 296 668 q 297 676 302 684 q 304 687 308 691 q 316 699 320 700 q 327 700 333 701 q 338 701 344 702 q 350 702 355 700 q 361 699 365 696 q 369 694 373 691 q 377 688 379 684 q 383 676 385 669 q 387 662 387 655 q 387 648 385 643 q 384 636 381 631 q 379 626 374 622 q 370 618 363 616 q 356 613 349 612 q 333 608 318 614 z"},"i":{"x_min":0,"x_max":178,"ha":178,"o":"m 129 453 l 129 315 l 129 185 l 129 149 l 129 104 l 129 32 l 129 3 l 95 3 l 65 3 l 4 3 q 4 9 10 16 q 16 23 24 30 q 32 36 42 42 q 51 48 58 52 l 58 104 l 58 133 l 12 216 l 17 239 q 19 253 18 269 q 17 285 15 299 q 12 315 8 331 q 15 321 18 304 q 21 288 23 271 q 25 252 25 230 l 58 183 l 58 185 l 58 315 l 58 444 q 51 448 42 454 q 32 460 24 466 q 16 473 10 480 q 4 488 4 494 l 65 494 l 95 494 l 129 494 l 129 468 z m 60 614 q 54 616 50 620 q 46 623 42 626 q 39 630 39 635 q 37 643 37 652 q 37 660 38 668 q 39 676 44 684 q 46 687 50 691 q 55 698 61 700 q 68 700 74 701 q 79 701 86 702 q 92 702 97 700 q 103 699 107 696 q 111 694 115 691 q 119 688 121 684 q 124 676 126 669 q 128 662 128 655 q 129 648 127 643 q 126 636 123 631 q 121 626 116 622 q 111 618 104 616 q 97 613 90 612 q 84 610 76 610 q 68 611 60 614 z"},"y":{"x_min":0,"x_max":574,"ha":574,"o":"m 522 418 l 224 -259 l 205 -310 l 69 -310 q 74 -299 85 -289 q 94 -281 109 -274 q 124 -267 147 -265 l 162 -234 l 194 -161 l 179 -70 l 191 -49 q 198 -37 203 -21 q 208 -5 210 9 q 213 26 214 43 q 217 31 215 14 q 213 -3 209 -20 q 205 -39 197 -60 l 213 -119 l 265 1 l 88 426 l 78 446 q 55 447 40 454 q 26 462 17 470 q 6 480 1 492 l 146 492 l 164 434 l 268 186 l 305 169 l 340 171 l 451 423 l 461 446 q 438 448 423 455 q 408 462 399 470 q 388 480 382 492 l 509 491 l 555 492 z m 306 94 l 329 146 l 313 145 l 279 158 z"},"@":{"x_min":0,"x_max":743,"ha":743,"o":"m 684 472 q 703 376 708 292 q 710 256 710 220 q 709 184 704 152 q 698 121 687 96 q 676 71 657 58 q 629 48 603 48 q 580 48 557 58 q 534 68 519 99 q 517 109 515 120 q 513 129 512 140 q 511 152 511 163 l 510 163 q 503 152 485 142 q 467 131 446 121 q 436 119 428 119 q 420 119 414 118 q 407 117 400 117 q 359 119 328 122 q 298 125 277 129 q 252 133 235 139 q 210 147 192 167 q 174 187 162 209 q 148 235 137 264 q 126 287 129 320 q 132 352 140 382 q 149 416 164 453 q 173 469 190 482 q 207 496 224 506 q 244 517 267 526 q 321 534 359 534 q 397 534 423 529 q 431 527 440 524 q 448 522 458 518 q 467 515 478 512 q 491 508 503 504 q 515 500 522 498 q 525 508 529 514 q 533 521 537 526 q 541 531 546 534 l 546 379 l 546 349 l 546 182 q 547 170 550 154 q 554 139 563 126 q 572 112 588 103 q 604 94 631 95 q 647 106 655 149 q 658 167 660 194 q 662 222 660 261 q 659 300 654 352 q 649 404 639 471 q 627 492 612 512 q 599 529 582 549 q 566 569 546 586 q 510 597 473 606 q 441 614 404 620 q 367 626 334 626 q 304 629 275 629 q 250 629 224 626 q 197 623 180 612 q 172 607 163 595 q 155 584 145 566 q 135 547 123 518 q 105 485 91 455 q 79 429 68 402 q 58 374 56 357 q 49 316 48 279 q 46 247 50 214 q 54 182 68 163 q 79 140 94 121 q 107 104 126 89 q 144 74 168 69 q 237 57 309 48 q 371 40 444 34 q 516 29 582 32 q 514 11 437 3 q 371 -5 288 -1 q 204 3 114 32 q 92 45 71 69 q 53 89 34 123 q 15 157 4 210 q 5 316 22 408 q 29 447 40 486 q 50 526 66 561 q 82 596 104 624 q 125 652 154 667 q 276 699 382 692 q 427 689 473 677 q 519 665 560 640 q 600 615 633 574 q 666 533 684 472 z m 185 273 q 185 271 188 265 q 192 259 197 251 q 202 243 208 234 q 215 226 220 219 l 211 260 l 186 288 q 186 284 186 282 q 185 279 185 277 z m 490 319 q 492 335 488 354 q 483 372 477 388 q 470 406 461 424 q 453 432 445 439 q 437 446 431 451 q 424 456 417 461 q 406 472 385 475 q 364 478 343 478 q 318 478 291 474 q 271 471 257 462 q 243 453 233 444 q 222 433 214 420 q 208 410 201 388 q 206 391 211 395 q 216 399 222 407 l 237 425 q 233 417 229 409 q 225 402 220 395 q 216 388 211 382 q 206 377 198 373 q 195 358 193 342 q 191 327 189 313 l 222 260 q 234 215 235 200 q 243 190 252 185 q 260 180 268 178 q 276 175 284 175 q 296 172 312 172 q 328 171 342 172 q 359 173 376 175 q 388 178 400 184 q 411 189 420 194 q 431 200 441 208 l 447 246 z"},".":{"x_min":0,"x_max":110,"ha":110,"o":"m 86 76 q 89 68 92 61 q 94 54 94 47 q 95 40 93 35 q 91 28 88 23 q 85 18 81 14 q 77 10 70 8 q 63 5 56 4 q 40 0 25 6 q 19 8 15 12 q 11 15 8 18 q 4 22 4 27 q 2 35 2 44 q 2 61 10 76 q 13 79 16 83 q 22 91 27 92 q 34 92 40 93 q 45 93 51 94 q 57 94 62 92 q 68 91 72 88 q 76 86 80 83 q 84 80 86 76 z"},"p":{"x_min":0,"x_max":595,"ha":595,"o":"m 543 317 q 555 290 552 252 q 548 214 538 179 q 527 139 509 96 q 498 77 477 62 q 456 46 435 35 q 410 22 383 11 q 329 3 288 2 q 248 0 218 3 q 188 6 168 13 q 147 20 134 29 l 134 -130 l 134 -261 l 134 -283 l 134 -308 l 100 -308 l 70 -308 l 10 -308 q 10 -302 16 -295 q 22 -288 30 -282 q 38 -275 48 -269 q 57 -263 64 -259 l 64 -200 l 25 -129 l 30 -106 q 32 -92 31 -76 q 30 -60 28 -46 q 25 -30 21 -14 q 28 -24 31 -40 q 34 -57 36 -74 q 38 -93 38 -115 l 64 -151 l 64 -130 l 64 44 l 3 158 q 1 159 3 172 q 5 186 7 203 q 10 222 13 246 q 11 248 8 253 q 6 258 4 263 q 1 268 0 274 q -4 293 -1 305 q 0 311 3 316 l 2 289 q 3 277 11 271 q 15 267 18 266 l 25 306 q 27 317 30 328 q 32 334 33 341 l 33 324 l 33 301 q 33 299 34 283 q 36 267 31 250 q 26 237 26 224 q 25 211 27 200 q 29 188 32 176 q 41 154 49 140 q 57 127 64 119 l 64 311 l 64 389 l 64 464 q 64 474 73 481 q 82 488 95 489 q 118 491 140 491 q 162 491 180 491 q 201 491 220 490 q 271 488 308 484 q 345 480 371 475 q 401 470 422 463 q 452 454 475 430 q 498 407 513 381 q 531 351 543 317 z m 116 168 q 115 166 121 157 q 127 148 135 139 q 144 128 155 115 q 152 133 146 149 q 139 165 131 176 q 122 189 112 201 z m 432 101 q 449 121 461 139 q 472 153 480 166 q 488 180 487 183 q 486 202 484 223 q 482 240 479 262 q 476 284 472 304 q 468 316 464 334 q 461 351 452 361 q 447 368 441 376 q 436 383 428 391 q 419 399 408 407 q 416 392 419 380 q 421 374 422 369 q 411 389 392 403 q 372 417 355 426 q 347 427 327 429 q 307 431 284 430 q 261 430 240 426 q 218 422 207 410 q 199 405 190 398 q 182 392 172 384 q 163 376 153 366 q 141 343 133 321 q 126 301 121 280 q 116 258 119 238 l 170 151 l 177 105 q 189 96 202 88 q 213 81 228 74 q 242 68 256 65 q 277 63 297 62 q 314 61 333 61 q 352 61 368 65 q 379 65 390 69 q 412 76 432 101 z"},"X":{"x_min":0,"x_max":755,"ha":755,"o":"m 728 0 l 629 1 l 560 1 q 564 9 571 17 q 577 24 588 31 q 598 38 613 43 l 428 290 l 428 280 l 374 266 l 343 281 l 145 14 l 135 2 l 8 1 q 13 12 24 22 q 33 30 48 38 q 62 45 85 47 l 93 57 l 129 105 l 139 196 l 157 213 q 167 223 176 236 q 185 250 191 263 q 198 278 204 294 q 204 282 196 266 q 189 249 181 235 q 171 218 159 201 l 158 145 l 347 399 l 255 523 l 178 540 q 176 539 166 550 q 157 560 146 573 q 133 588 117 607 q 113 606 108 608 q 103 609 98 611 q 92 613 86 615 q 76 620 70 625 q 65 630 62 635 q 58 640 56 645 l 77 626 q 87 619 97 621 q 101 622 105 624 l 78 656 q 75 659 72 664 q 68 669 65 674 q 61 679 57 685 q 64 679 70 674 q 75 669 80 665 q 86 661 88 659 q 90 657 103 647 q 116 637 126 623 q 133 611 143 602 q 153 593 162 587 q 173 580 184 574 q 196 570 206 568 q 216 566 224 564 l 93 740 l 85 750 q 62 752 48 759 q 33 766 24 774 q 13 784 8 796 l 135 796 l 145 783 l 319 549 l 380 521 l 441 526 l 611 755 q 596 760 586 766 q 577 773 571 780 q 564 788 560 796 l 686 796 l 728 796 l 683 740 l 431 400 l 683 61 z m 389 456 l 421 500 l 388 498 l 345 515 z m 406 321 l 389 343 l 353 294 l 374 290 z"},"*":{"x_min":0,"x_max":290,"ha":290,"o":"m 254 662 q 235 653 216 632 q 197 612 180 594 l 233 532 q 245 521 247 510 q 249 499 247 490 q 244 479 237 470 q 239 477 235 485 q 231 493 224 500 q 218 508 210 514 q 203 521 199 525 q 196 526 188 530 q 180 534 170 539 q 161 544 152 550 q 142 556 135 561 q 119 544 107 534 q 95 524 86 519 q 75 513 68 510 q 35 496 22 488 l 7 479 q 9 490 17 502 q 25 514 35 525 q 46 537 61 551 q 75 558 84 564 q 92 571 97 576 q 102 581 104 586 q 105 589 110 595 q 100 604 91 611 q 83 617 75 623 q 67 629 63 631 q 53 644 42 654 q 33 662 22 668 q 11 673 0 670 q 12 676 23 680 q 33 682 45 682 q 57 681 69 670 l 124 629 q 125 638 126 646 q 126 655 126 662 l 126 677 q 132 691 136 704 q 140 718 142 729 q 145 741 147 752 q 154 744 158 732 q 163 721 166 711 q 170 699 171 687 q 169 678 169 666 q 169 654 169 643 q 177 650 184 656 q 192 663 198 668 q 204 673 210 678 l 274 688 z m 196 534 q 191 542 178 553 q 165 564 152 571 l 147 566 l 147 565 q 155 560 167 552 q 179 544 196 534 z"},"Y":{"x_min":0,"x_max":749,"ha":749,"o":"m 685 740 l 651 693 l 637 622 l 620 608 q 610 600 602 588 q 593 576 587 565 q 579 552 573 538 q 573 549 580 562 q 588 576 596 589 q 606 604 619 619 l 622 655 l 421 383 l 421 180 l 421 145 l 421 101 l 421 30 l 421 1 l 387 1 l 357 1 l 297 1 q 297 7 302 14 q 308 21 316 28 q 325 34 334 40 q 343 46 350 50 l 350 101 l 350 129 l 305 210 l 309 233 q 311 247 310 262 q 309 278 307 292 q 304 308 300 324 q 307 314 310 298 q 314 282 316 265 q 318 246 318 225 l 350 179 l 350 180 l 350 383 l 247 523 l 172 540 q 170 539 160 550 q 150 560 139 573 q 126 588 110 607 q 106 606 101 608 q 96 609 91 611 q 85 613 79 615 q 69 620 64 625 q 58 630 55 635 q 51 640 49 645 l 70 626 q 80 619 90 621 q 94 622 98 624 l 72 656 q 69 659 65 664 q 61 669 58 674 q 54 679 50 685 q 58 679 64 674 q 69 669 74 665 q 80 661 82 659 q 84 657 97 647 q 110 637 119 623 q 126 611 136 602 q 146 593 155 587 q 166 580 177 574 q 189 570 199 568 q 209 566 217 564 l 86 740 l 78 751 q 55 752 41 760 q 27 767 18 775 q 7 785 2 796 l 128 796 l 138 784 l 317 544 l 316 547 l 377 519 l 441 524 l 612 755 q 598 760 588 766 q 579 773 573 780 q 566 788 562 796 l 688 796 l 730 796 z m 339 514 l 386 450 l 422 498 l 385 496 z"},"c":{"x_min":0,"x_max":527,"ha":527,"o":"m 481 360 l 478 314 q 461 341 440 360 q 418 379 398 390 q 387 392 376 393 q 364 394 353 396 q 341 398 328 400 l 274 424 l 292 424 l 337 405 q 348 406 360 404 q 371 402 382 399 q 375 402 370 404 q 364 407 360 409 l 351 412 q 325 421 299 424 q 273 427 252 426 q 227 425 205 421 q 182 417 165 406 q 148 396 137 385 q 124 372 115 356 q 110 349 107 339 q 104 329 101 317 q 106 321 112 326 q 117 332 124 340 l 142 362 q 137 353 132 344 q 127 336 122 327 q 117 318 111 311 q 107 306 104 304 q 100 301 96 299 q 91 279 89 258 q 87 236 85 219 q 83 199 82 179 q 80 175 88 162 q 97 149 107 135 q 118 118 134 97 q 144 83 155 76 q 166 68 175 65 q 186 61 196 61 q 210 57 229 57 q 248 57 265 58 q 284 59 304 61 q 311 63 332 68 q 354 72 376 82 q 388 87 400 94 q 411 101 419 106 q 429 112 438 119 q 438 109 436 98 q 435 86 428 74 q 422 61 409 49 q 396 37 372 25 q 336 11 297 4 q 263 -2 222 -2 q 180 -2 136 15 q 123 24 110 35 q 99 44 85 56 q 71 67 59 80 q 56 69 60 58 q 62 53 64 49 q 53 60 50 76 q 46 93 46 94 q 38 102 32 110 q 27 118 25 126 q 16 169 16 215 q 15 253 22 299 q 30 345 53 387 q 69 409 85 427 q 99 443 114 458 q 130 472 144 477 q 174 483 207 486 q 235 488 268 487 q 301 486 333 477 q 349 474 369 466 q 386 459 409 445 q 432 431 459 407 z"},"!":{"x_min":0,"x_max":175,"ha":175,"o":"m 134 78 q 137 70 139 62 q 141 55 142 48 q 142 42 140 37 q 139 30 136 25 q 134 20 129 16 q 124 11 117 9 q 110 6 103 5 q 97 3 89 4 q 81 4 73 7 q 67 9 63 13 q 59 16 56 20 q 52 23 52 28 q 50 36 50 45 q 50 53 51 61 q 52 69 57 77 q 60 80 63 84 q 68 91 74 94 q 81 95 87 95 q 92 95 98 95 q 105 95 110 94 q 116 92 120 89 q 124 87 128 84 q 132 81 134 78 z m 30 398 q 32 412 31 428 q 30 444 28 458 q 25 474 21 490 q 28 480 31 464 q 34 448 36 431 q 38 412 38 390 l 61 357 q 60 376 59 401 q 58 426 58 453 q 58 480 60 507 q 61 534 64 558 q 67 598 69 634 q 71 665 72 697 q 72 729 69 749 q 50 758 36 768 q 24 776 14 786 q 3 796 3 805 l 94 805 l 96 805 l 127 804 q 131 742 134 689 q 135 666 136 644 q 136 621 136 602 q 136 582 135 567 q 134 552 131 545 q 126 491 124 443 q 123 422 122 400 q 122 379 122 360 q 123 340 124 323 q 126 306 129 294 q 125 272 119 253 q 114 236 106 218 q 99 201 88 189 q 87 203 84 221 q 82 236 78 256 q 74 275 68 297 l 25 375 z"},"/":{"x_min":0,"x_max":435,"ha":435,"o":"m 3 4 q 4 2 4 2 q 4 1 5 -1 q 4 -1 4 0 q 3 1 3 4 z m 429 795 l 410 736 q 401 723 390 704 q 379 684 367 660 q 355 636 343 610 q 331 583 320 558 q 294 498 266 431 q 248 377 214 318 q 180 258 145 207 q 105 147 59 90 q 40 70 29 56 q 18 41 12 30 q 6 20 4 14 q 3 7 3 4 q -3 29 1 56 q 5 82 12 105 q 20 131 32 157 q 44 171 57 191 q 70 211 84 234 q 98 257 112 282 q 126 306 139 330 q 169 385 198 447 q 201 459 209 478 q 217 496 228 518 q 238 541 250 566 q 263 591 275 615 q 304 671 339 735 z"},"[":{"x_min":0,"x_max":272,"ha":272,"o":"m 260 817 q 253 794 237 780 q 221 765 202 756 q 182 746 162 742 q 141 737 125 735 l 122 701 l 89 642 q 89 630 89 597 q 89 564 88 521 q 88 478 88 431 q 88 384 88 344 q 89 305 89 278 q 89 252 90 250 q 90 248 91 228 q 92 207 94 174 q 95 141 96 100 q 98 59 99 16 l 105 -212 q 127 -210 144 -212 q 154 -213 162 -215 q 179 -217 196 -228 q 214 -239 228 -253 q 245 -269 260 -288 l 1 -288 l 1 -218 l 1 -70 l 1 265 l -2 816 z m 109 733 q 104 732 100 732 q 97 733 95 733 l 90 733 q 82 729 82 712 q 82 696 84 679 l 109 706 z"},"6":{"x_min":0,"x_max":545,"ha":545,"o":"m 298 736 q 265 736 238 730 q 212 724 192 713 q 171 702 156 688 q 140 675 129 660 q 103 626 92 582 q 85 563 81 548 q 90 553 104 572 q 119 591 139 636 q 138 627 137 618 q 135 610 134 602 q 132 595 129 590 q 122 574 113 559 q 105 546 95 532 q 85 519 71 510 q 59 453 60 401 q 61 349 67 310 q 74 264 87 225 q 98 187 113 160 q 128 133 145 114 q 162 96 180 85 q 199 74 216 68 q 256 55 301 63 q 333 70 362 86 q 392 103 414 126 q 435 148 446 175 q 458 202 455 230 q 455 245 452 262 q 439 290 421 315 q 405 336 380 358 q 355 379 321 390 q 276 408 230 412 q 191 416 146 407 q 101 398 62 361 q 81 395 114 419 q 143 439 190 452 q 238 464 310 451 q 344 436 376 414 q 403 395 430 368 q 458 340 475 305 l 475 304 l 478 298 q 493 262 497 231 q 501 200 496 174 q 492 149 481 128 q 470 106 457 90 q 425 51 375 25 q 370 23 366 22 q 362 20 357 19 l 357 18 q 309 3 269 2 q 229 1 197 10 q 165 20 140 38 q 114 55 95 75 q 50 123 25 194 q 14 221 8 254 q 3 286 2 320 q 0 354 2 388 q 5 422 9 454 q 19 528 38 603 q 49 648 68 680 q 88 712 106 733 q 127 757 151 773 q 177 790 210 794 q 244 799 273 797 q 307 794 342 786 q 412 757 445 723 q 478 689 490 660 q 504 626 499 591 q 478 632 456 658 q 433 684 412 700 q 401 700 388 700 q 376 701 366 701 q 354 701 343 702 z m 328 734 q 320 734 317 735 l 351 710 q 363 712 378 710 q 392 707 406 704 q 389 715 375 722 q 361 728 350 731 q 338 735 328 734 z"},"r":{"x_min":0,"x_max":474,"ha":474,"o":"m 439 384 q 441 377 442 366 q 443 356 442 342 q 441 327 436 307 l 415 339 l 342 359 l 317 411 q 304 415 288 419 q 271 423 252 424 q 234 426 214 425 q 195 424 176 418 l 166 413 q 161 410 156 406 q 150 402 144 397 q 142 393 138 384 q 135 375 132 363 q 130 351 130 338 q 130 325 134 312 q 131 317 128 322 q 126 327 122 332 q 119 337 117 344 l 117 308 l 117 178 l 117 142 l 117 97 l 117 25 l 117 -4 l 85 -4 l 57 -4 l 1 -4 q 1 2 6 9 q 12 16 20 22 q 28 29 36 35 q 45 41 51 45 l 51 97 l 51 126 l 8 209 l 13 232 q 15 246 14 262 q 12 278 10 292 q 7 308 4 324 q 10 314 14 298 q 17 282 19 265 q 21 246 21 224 l 51 177 l 51 178 l 51 252 l 51 308 l 51 326 l 51 437 q 45 441 36 447 q 28 453 20 460 q 12 466 6 474 q 1 481 1 487 l 51 487 l 57 487 l 85 487 l 117 487 l 117 461 l 117 458 q 123 461 138 466 q 152 471 170 476 q 187 481 206 484 q 224 487 240 486 q 287 484 327 473 q 361 463 394 442 q 426 422 439 384 z m 408 354 q 401 363 390 372 q 380 380 369 386 q 358 393 349 398 q 340 403 337 404 l 351 363 z"},"2":{"x_min":0,"x_max":551,"ha":551,"o":"m 121 129 q 107 114 108 101 q 109 90 124 78 q 139 67 184 61 q 195 59 206 57 q 216 55 228 54 q 239 53 252 53 q 273 55 294 57 q 312 59 332 60 q 353 61 370 62 q 374 62 380 61 q 386 60 392 58 q 399 56 406 54 q 412 49 422 48 q 431 47 439 48 q 449 49 460 51 q 453 47 441 40 q 429 34 415 39 l 414 39 q 406 41 398 42 q 390 43 383 44 q 375 45 367 45 q 359 43 353 40 q 348 38 343 36 q 338 34 339 32 q 361 29 381 27 q 398 25 416 26 q 434 27 445 32 q 455 35 465 40 q 473 45 482 52 q 490 60 495 74 q 497 53 488 37 q 480 23 461 12 q 442 1 404 1 l 80 1 q 64 0 51 2 q 40 4 30 8 q 19 13 14 23 q -2 58 0 86 q 1 113 9 131 q 19 152 36 168 l 44 178 q 45 180 60 192 q 74 205 98 224 q 121 243 150 266 q 179 290 209 315 l 369 445 q 400 470 418 494 q 435 519 442 542 q 448 564 446 584 q 443 605 436 622 q 419 662 376 697 q 351 705 325 708 q 299 711 277 712 q 251 712 228 710 q 197 709 160 688 q 123 667 90 641 q 51 611 12 572 q 37 633 70 681 q 84 702 102 722 q 120 742 141 758 q 162 774 186 784 q 211 794 239 796 q 274 798 307 795 q 336 793 368 787 q 400 781 425 770 q 450 747 468 714 q 483 685 493 642 q 503 600 496 541 q 484 490 451 434 q 423 386 372 326 q 322 267 237 207 z m 352 336 q 316 304 283 276 q 254 252 224 228 q 195 203 175 190 q 191 199 218 215 q 246 231 273 250 q 300 270 322 292 q 345 315 352 336 z"},"{":{"x_min":0,"x_max":284,"ha":284,"o":"m 4 257 l 37 292 q 64 307 72 335 q 79 363 77 390 q 74 422 62 457 q 60 483 62 521 q 64 559 68 595 q 72 637 78 682 q 110 723 146 747 q 181 771 211 785 q 245 801 279 808 q 258 787 237 759 q 216 731 198 700 q 180 669 168 636 q 155 603 152 573 q 148 541 146 505 q 145 469 142 433 q 139 397 134 363 q 128 329 116 299 q 114 290 104 276 q 93 263 88 255 q 93 247 104 234 q 114 221 116 212 q 128 182 136 143 q 143 104 148 62 q 153 21 158 -19 q 163 -59 169 -90 q 177 -120 195 -156 q 213 -191 232 -223 q 254 -260 279 -297 l 141 -218 q 132 -210 123 -180 q 114 -150 106 -118 q 97 -80 88 -35 q 87 -15 81 19 q 75 53 69 88 q 63 122 58 151 q 54 180 56 190 q 58 200 50 212 q 41 224 31 234 q 19 245 4 257 z m 4 256 q 4 256 3 257 q 10 264 16 271 q 23 278 30 285 q 35 291 41 295 q 53 303 61 315 q 77 339 77 368 q 77 398 71 424 q 69 432 66 440 q 64 447 62 455 q 60 458 60 461 q 61 464 61 467 q 59 482 61 496 q 62 530 64 564 q 67 597 71 630 q 72 641 73 652 q 74 663 76 674 q 76 676 76 678 q 77 680 77 682 q 77 684 80 686 q 82 688 83 690 q 87 695 90 698 q 94 702 98 707 q 151 761 219 790 q 233 796 248 801 q 264 806 279 809 q 279 809 279 808 q 249 777 224 741 q 199 705 181 665 q 172 645 165 625 q 158 605 154 583 q 150 561 149 539 q 148 517 147 495 q 145 450 141 405 q 137 360 123 316 q 118 299 110 285 q 105 277 100 271 q 95 265 90 257 q 88 254 91 250 q 94 246 96 244 q 99 241 102 238 q 104 234 106 231 q 116 219 120 204 q 134 166 140 127 q 145 88 150 49 q 153 28 156 7 q 158 -14 161 -35 q 163 -52 166 -69 q 168 -86 174 -102 q 185 -136 202 -168 q 218 -200 236 -230 q 247 -247 258 -264 q 268 -280 279 -297 q 279 -297 279 -297 q 256 -284 232 -271 q 209 -258 186 -244 q 168 -234 149 -224 q 144 -221 142 -219 q 139 -217 136 -212 q 131 -202 127 -192 q 123 -181 120 -170 q 115 -156 112 -142 q 108 -128 104 -114 q 99 -94 95 -75 q 91 -56 87 -36 q 86 -31 86 -28 q 86 -24 86 -20 q 85 -12 84 -6 q 83 1 82 9 q 79 26 76 42 q 73 59 71 76 q 68 92 65 108 q 62 124 60 141 q 55 164 55 185 q 55 190 55 195 q 55 200 52 205 q 49 212 44 218 q 39 224 34 229 q 20 244 4 256 q 3 256 4 257 q 11 252 18 246 q 24 241 30 235 q 38 227 46 217 q 54 207 56 195 q 57 192 56 188 q 56 185 56 181 q 56 176 56 172 q 57 168 58 163 q 60 149 62 136 q 64 124 66 110 q 71 78 77 46 q 83 14 86 -18 q 88 -25 88 -31 q 88 -37 90 -44 q 92 -55 94 -65 q 97 -75 99 -85 q 105 -113 112 -140 q 118 -168 129 -194 q 132 -205 137 -212 q 139 -215 143 -219 l 170 -234 q 192 -247 214 -260 q 236 -272 259 -285 q 269 -292 279 -296 q 278 -296 278 -297 q 279 -298 278 -296 q 276 -294 276 -293 q 274 -289 272 -286 q 269 -283 267 -280 q 249 -253 232 -226 q 216 -199 202 -170 q 194 -155 187 -140 q 180 -124 174 -107 q 169 -91 166 -74 q 163 -58 161 -41 q 155 1 150 42 q 146 82 139 124 q 135 143 131 162 q 127 180 121 198 q 118 206 115 214 q 112 221 107 228 q 102 235 97 241 q 92 247 87 255 q 91 262 96 268 q 100 273 105 280 q 115 295 119 308 q 135 352 139 398 q 143 444 146 489 q 147 512 148 534 q 149 555 152 577 q 158 617 175 654 q 192 694 216 730 q 240 767 269 799 q 271 801 274 804 q 277 807 279 808 q 278 808 278 808 q 278 807 277 807 q 273 807 267 805 q 256 803 246 800 q 237 796 227 792 q 158 765 104 711 q 99 707 96 703 q 92 699 88 694 q 86 692 84 690 q 82 687 80 685 q 79 685 79 684 q 78 683 78 682 q 78 680 78 678 q 77 676 77 674 q 75 663 74 652 q 73 641 72 630 q 68 597 66 564 q 63 530 62 496 q 60 482 62 467 q 62 459 63 455 q 69 437 72 423 q 77 397 78 369 q 78 341 64 318 q 58 306 46 297 q 44 295 42 294 q 39 293 37 291 l 32 286 q 25 278 18 271 q 11 264 4 256 z"},"9":{"x_min":0,"x_max":551,"ha":551,"o":"m 20 489 q 20 490 19 490 z m 481 607 q 492 579 498 546 q 503 514 504 480 q 505 445 503 410 q 501 376 497 345 q 487 270 469 195 q 457 149 438 117 q 419 85 400 64 q 378 39 355 23 q 328 5 294 1 q 261 -3 232 -1 q 198 2 163 11 q 93 40 60 74 q 27 107 15 137 q 1 171 6 207 q 27 165 50 139 q 73 113 93 97 q 104 96 116 96 q 128 95 139 95 l 163 95 l 208 61 q 241 60 267 66 q 293 73 314 84 q 335 94 350 108 q 366 122 377 137 q 403 171 414 216 q 417 224 420 232 q 423 241 426 250 q 417 245 402 226 q 387 207 367 162 q 367 171 369 180 q 371 188 372 195 q 374 202 377 207 q 383 223 392 238 q 400 251 410 265 q 421 279 435 288 q 443 323 446 356 q 448 388 446 417 q 443 411 429 392 q 415 373 386 355 q 357 337 311 327 q 265 317 199 329 q 155 345 119 368 q 87 388 58 418 q 30 447 20 489 l 19 490 q 6 535 4 571 q 2 607 8 636 q 13 664 24 686 q 35 707 49 723 q 81 760 130 777 q 135 779 140 780 q 144 781 149 783 q 197 798 236 799 q 276 800 308 790 q 341 781 366 764 q 392 746 411 726 q 456 678 481 607 z m 188 390 q 232 372 278 368 q 297 366 318 367 q 340 368 362 374 q 383 379 404 390 q 426 401 446 419 q 444 453 440 482 q 437 511 432 532 q 427 557 420 576 q 409 614 394 641 q 379 668 362 687 q 344 706 326 717 q 308 728 290 734 q 249 747 204 739 q 172 731 142 714 q 113 698 92 675 q 70 652 58 625 q 47 598 50 570 q 50 554 53 538 q 67 504 86 475 q 103 450 128 426 q 153 401 188 390 z m 178 63 q 180 63 183 62 q 186 62 189 62 l 154 87 q 142 85 128 88 q 113 90 99 93 q 116 81 130 75 q 144 69 155 66 q 167 62 178 63 z"}," ":{"x_min":0,"x_max":500,"ha":500,"o":""},"I":{"x_min":0,"x_max":225,"ha":225,"o":"m 143 755 l 143 623 l 143 185 l 143 148 l 143 103 l 143 31 l 143 2 l 109 2 l 79 2 l 18 2 q 18 8 24 15 q 30 22 38 29 q 46 36 56 42 q 65 47 72 51 l 72 103 l 72 132 l 26 215 l 30 239 q 32 253 32 268 q 31 284 29 298 q 26 314 22 330 q 29 320 32 304 q 35 288 37 271 q 39 252 39 230 l 72 183 l 72 185 l 72 376 l 4 503 q 2 504 4 518 q 5 531 7 548 q 10 567 14 591 q 11 593 8 598 q 6 603 4 608 q 1 613 0 620 q -4 639 -1 651 q 0 657 3 661 l 3 634 q 4 622 12 616 q 16 612 19 611 l 26 652 q 27 656 28 662 q 28 669 30 674 q 31 680 33 687 q 34 678 34 670 l 34 646 q 34 644 35 628 q 36 612 31 595 q 27 582 26 570 q 26 557 28 546 q 30 534 33 521 q 44 492 54 478 q 65 463 72 456 l 72 623 l 72 752 q 65 756 56 762 q 46 768 38 774 q 30 781 24 788 q 18 796 18 802 l 79 802 l 109 802 l 143 802 l 143 776 z"},"H":{"x_min":0,"x_max":654,"ha":654,"o":"m 591 803 l 591 773 l 591 701 l 591 656 l 591 620 l 591 182 l 591 149 l 591 50 l 591 28 l 591 3 l 554 3 l 523 3 l 458 3 q 458 9 464 16 q 471 23 480 30 q 488 37 498 42 q 507 48 515 52 l 515 182 l 515 354 q 504 356 490 359 q 476 362 461 365 q 446 368 432 371 q 419 374 411 376 q 379 386 349 395 q 323 403 296 408 q 270 414 252 414 q 232 399 214 386 q 198 375 182 364 q 165 352 153 346 l 153 186 l 153 149 l 153 104 l 153 32 l 153 3 l 117 3 l 85 3 l 20 3 q 20 9 26 16 q 33 23 42 30 q 51 37 60 42 q 70 48 77 52 l 77 104 l 77 133 l 28 216 l 33 239 q 35 253 34 269 q 33 285 31 299 q 28 315 24 331 q 31 321 34 305 q 38 289 40 272 q 42 253 42 231 l 77 184 l 77 186 l 77 377 l 5 504 q 3 505 5 518 q 7 532 9 549 q 12 568 16 592 q 13 594 10 599 q 7 604 5 609 q 2 614 1 620 q -3 640 0 651 q 1 657 4 662 l 4 635 q 5 623 13 617 q 17 613 21 612 l 28 652 q 30 663 33 674 q 35 680 36 687 q 37 678 37 670 l 37 647 q 37 645 38 629 q 39 613 34 596 q 29 583 29 570 q 29 557 31 546 q 33 534 36 522 q 48 493 58 478 q 69 464 77 457 l 77 624 l 77 753 q 70 757 60 763 q 51 769 42 776 q 33 782 26 790 q 20 797 20 803 l 85 803 l 117 803 l 153 803 l 153 777 l 153 756 l 153 656 l 153 624 l 153 403 q 165 407 182 414 q 200 422 217 429 q 234 436 248 442 q 261 448 264 450 q 299 441 339 437 q 374 433 419 434 q 464 435 515 446 l 515 620 l 515 701 l 515 753 q 507 757 498 763 q 488 769 480 776 q 471 782 464 790 q 458 797 458 803 l 523 803 l 554 803 z m 466 397 q 469 395 485 388 q 501 380 515 375 l 515 409 q 501 404 485 400 q 469 396 466 397 z"},"4":{"x_min":0,"x_max":545,"ha":545,"o":"m 498 311 l 450 282 l 450 182 l 450 146 l 450 101 l 450 29 l 450 0 l 416 0 l 386 0 l 326 0 q 326 6 332 13 q 338 20 346 27 q 354 34 363 40 q 372 45 379 49 l 379 101 l 379 182 l 379 289 q 370 291 362 292 q 353 292 346 294 q 306 304 259 312 q 219 319 167 323 q 115 327 58 324 q 45 322 34 324 q 25 326 16 331 q 7 336 4 349 q 0 362 2 373 q 5 384 9 392 q 13 402 21 410 l 306 710 l 345 745 l 392 786 q 407 797 419 798 q 430 799 439 789 q 448 779 450 748 l 450 312 z m 379 407 l 365 389 l 352 345 q 359 343 366 341 q 372 339 379 337 z m 379 723 q 379 724 378 724 l 378 705 l 76 384 l 76 383 q 80 383 92 381 q 103 379 116 378 q 129 376 141 375 q 153 374 159 374 q 180 376 207 373 q 230 371 264 365 q 298 359 341 348 l 356 394 l 379 420 z"},"~":{"x_min":0,"x_max":704,"ha":704,"o":"m 514 292 q 540 298 570 307 q 595 315 627 327 q 659 339 693 356 q 683 323 650 297 q 622 274 568 256 q 515 237 423 236 q 349 262 287 280 q 260 287 233 293 q 206 299 182 302 q 158 305 140 304 q 121 303 112 297 l 51 264 q 55 270 59 276 q 63 281 68 286 q 72 292 77 297 q 59 295 38 288 q 16 281 -1 264 q -4 301 17 328 q 26 340 42 350 q 57 361 81 369 q 105 377 138 380 q 172 384 218 382 q 281 357 337 338 q 361 330 386 322 q 411 314 434 308 q 458 301 478 296 q 499 292 514 292 z m 424 252 q 402 267 379 278 q 359 287 335 292 q 311 298 288 292 z"},"D":{"x_min":0,"x_max":636,"ha":636,"o":"m 559 514 q 574 446 570 376 q 568 346 562 314 q 555 281 542 248 q 529 214 508 181 q 487 148 456 118 q 433 95 406 75 q 383 58 352 41 q 320 24 285 15 q 254 8 221 4 q 193 1 160 2 q 127 4 95 16 l 89 19 q 75 27 75 41 l 75 105 l 75 133 l 29 216 l 34 240 q 36 254 35 270 q 34 286 32 300 q 29 316 25 332 q 32 322 35 306 q 38 289 40 272 q 42 253 42 231 l 75 184 l 75 194 l 75 377 l 7 505 q 5 506 7 520 q 9 533 11 550 q 14 569 17 593 q 14 595 12 600 q 9 605 7 610 q 4 615 3 622 q -1 641 2 653 q 3 659 6 663 l 6 636 q 7 624 15 618 q 19 614 22 613 l 29 654 q 30 658 30 664 q 31 671 33 676 q 34 682 36 689 q 37 680 37 672 l 37 648 q 37 646 38 630 q 40 614 35 597 q 30 584 30 571 q 29 558 31 547 q 33 535 36 523 q 48 494 58 480 q 68 465 75 458 l 75 613 l 75 745 l 75 767 q 75 786 95 791 q 138 800 186 801 q 227 801 276 792 q 326 784 375 758 q 382 756 393 754 q 404 752 416 749 q 427 746 436 743 q 446 740 449 738 q 458 730 465 723 q 471 717 477 710 q 483 703 487 698 q 479 705 471 712 q 464 717 456 723 q 448 729 443 732 l 434 732 l 415 732 q 423 726 441 710 q 459 695 480 668 q 501 641 522 603 q 544 565 559 514 z m 140 739 q 139 733 139 728 q 139 723 140 718 q 141 714 143 711 q 148 718 154 724 q 166 736 185 739 q 180 742 174 744 q 161 747 140 739 z m 267 88 q 318 96 356 115 q 393 134 420 160 q 447 185 464 216 q 482 246 492 276 q 516 347 513 432 q 509 420 503 411 q 497 402 491 396 q 484 389 476 384 q 468 382 466 376 q 464 369 463 361 q 462 352 464 341 q 459 352 460 359 q 460 366 462 371 q 464 376 468 380 q 466 379 462 378 q 458 377 454 376 q 450 375 445 374 q 478 389 490 416 q 502 444 503 471 q 504 503 495 539 q 469 609 429 648 q 389 688 351 708 q 306 731 257 738 q 228 741 206 733 q 185 725 171 714 q 154 701 142 684 q 140 683 139 660 q 138 636 137 598 q 136 559 136 511 q 136 463 136 412 q 136 293 138 143 q 136 130 140 120 q 145 111 154 105 q 163 99 175 96 q 187 92 199 90 q 228 86 267 88 z"},"^":{"x_min":0,"x_max":278,"ha":278,"o":"m 140 752 q 175 688 202 629 q 214 604 225 578 q 236 551 245 526 q 254 502 260 480 q 266 459 267 444 q 230 491 200 531 q 187 548 174 566 q 162 583 152 598 q 141 613 133 625 q 125 637 122 643 q 113 607 96 572 q 82 542 58 508 q 35 473 1 444 q 31 528 57 595 q 68 623 80 650 q 92 678 103 700 q 114 722 124 736 q 133 750 140 752 z"},"0":{"x_min":0,"x_max":524,"ha":524,"o":"m 459 646 q 478 576 489 510 q 494 481 498 451 q 501 421 502 392 q 503 362 501 334 q 499 307 493 285 q 484 228 468 180 q 461 159 452 138 q 442 118 430 100 q 418 81 403 66 q 388 52 369 45 q 332 21 292 10 q 257 0 214 0 q 170 1 125 28 q 98 59 74 92 q 54 119 35 151 q 16 183 10 210 q 2 282 1 357 q 0 421 8 496 q 15 572 38 641 q 55 676 72 706 q 86 732 102 756 q 119 779 133 787 q 170 795 205 799 q 235 802 268 800 q 302 799 328 787 q 356 770 382 748 q 404 729 426 703 q 448 677 459 646 z m 386 230 l 439 386 q 441 421 436 460 q 431 500 423 534 q 414 574 403 613 q 392 630 382 644 q 373 658 365 669 q 356 681 348 691 q 334 714 308 722 q 282 729 256 728 q 225 727 191 719 q 166 712 148 694 q 130 675 118 655 q 104 631 95 603 q 93 596 90 588 q 96 593 104 602 q 112 610 123 627 l 144 662 q 138 647 132 632 q 127 619 120 605 q 113 591 105 580 q 100 572 94 567 q 89 562 84 560 q 76 523 72 476 q 68 429 65 387 q 61 338 60 288 q 58 282 66 259 q 75 236 86 210 q 98 180 116 143 q 127 118 138 105 q 149 92 159 86 q 170 79 182 78 q 198 72 218 71 q 237 70 255 72 q 275 74 297 78 q 311 84 326 96 q 341 108 353 120 q 367 134 379 149 z m 410 176 q 420 194 429 216 q 437 235 444 261 q 451 287 454 317 l 434 277 q 426 262 420 248 q 414 235 415 232 z"},"F":{"x_min":0,"x_max":601,"ha":601,"o":"m 507 739 q 508 739 513 738 q 518 738 524 738 q 531 738 537 738 q 543 738 546 737 q 539 737 533 736 q 528 735 524 734 q 519 734 518 732 q 521 731 525 729 q 532 725 535 717 q 530 722 525 726 q 514 733 503 732 l 470 761 q 467 761 464 761 q 460 761 456 762 q 375 766 310 756 q 282 752 256 744 q 229 736 208 724 q 186 711 172 692 q 158 673 157 648 l 157 464 q 158 451 173 443 q 186 435 214 432 q 242 428 295 435 q 344 435 388 431 q 426 428 464 420 q 503 413 524 399 q 483 402 443 402 q 408 402 368 398 q 329 394 296 383 q 281 379 263 376 q 247 374 226 374 q 206 373 180 378 q 172 376 167 371 q 162 366 158 356 q 154 346 155 328 q 156 299 156 268 q 156 242 156 210 q 156 178 157 146 l 157 145 l 157 66 l 157 0 l 122 0 l 93 0 l 32 0 q 32 6 38 13 q 44 20 52 26 q 60 33 70 39 q 79 45 86 49 l 86 101 l 86 130 l 40 213 l 44 237 q 46 251 45 266 q 44 282 42 296 q 39 312 35 328 q 42 318 46 302 q 49 286 51 269 q 53 250 53 228 l 86 181 l 86 183 l 86 374 l 18 501 q 16 502 18 516 q 19 530 21 547 q 24 566 28 590 q 25 592 22 596 q 20 601 18 606 q 15 611 14 618 q 10 637 13 649 q 14 655 17 659 l 16 632 q 17 625 20 620 q 23 616 26 614 q 30 610 33 609 l 39 650 q 40 654 41 660 q 42 667 44 672 q 46 678 47 685 q 48 676 48 668 l 48 645 q 48 642 49 626 q 50 610 45 594 q 41 581 40 568 q 40 555 42 544 q 44 531 47 519 q 58 490 68 476 q 78 461 86 454 l 86 609 l 86 741 l 86 763 q 86 774 94 781 q 103 788 115 788 q 130 791 170 794 q 204 796 268 798 q 332 799 441 797 q 478 797 510 791 q 536 786 560 773 q 585 760 590 736 q 582 742 568 746 q 556 750 536 754 q 517 758 489 760 q 494 754 500 747 q 506 740 507 739 z m 157 706 q 160 717 167 727 q 173 735 184 743 q 194 751 211 755 q 190 759 176 755 q 164 752 156 742 q 149 731 157 706 z"},"`":{"x_min":0,"x_max":124,"ha":124,"o":"m 80 720 q 87 704 91 687 q 95 673 96 656 q 97 638 92 621 q 64 641 43 660 q 25 677 12 696 q -2 714 3 730 q 8 733 13 737 q 24 744 32 747 q 38 748 42 748 q 50 748 58 745 q 63 741 67 737 q 71 733 74 728 q 78 724 80 719 l 80 720 z"},"k":{"x_min":0,"x_max":545,"ha":545,"o":"m 433 124 q 448 97 464 74 q 480 52 494 35 q 510 16 524 -1 q 503 -1 483 10 q 463 20 446 32 q 427 46 410 65 q 401 80 384 98 q 373 100 358 103 q 342 106 326 110 q 310 115 298 121 q 285 127 281 134 q 265 152 251 170 q 239 185 226 203 q 214 221 206 237 q 183 252 157 272 l 145 282 l 145 182 l 145 146 l 145 101 l 145 28 l 145 -1 l 110 -1 l 80 -1 l 20 -1 q 20 5 26 12 q 32 19 40 26 q 48 33 58 39 q 67 45 74 49 l 74 101 l 74 129 l 28 212 l 32 236 q 34 250 33 266 q 32 282 30 296 q 27 312 23 328 q 30 318 34 302 q 37 285 39 268 q 41 249 41 227 l 74 180 l 74 182 l 74 373 l 6 501 q 4 502 6 516 q 7 529 9 546 q 12 565 16 589 q 13 591 10 596 q 8 601 6 606 q 3 611 2 617 q -2 637 1 648 q 2 654 5 659 l 4 632 q 5 620 13 614 q 17 610 21 609 l 27 649 q 28 654 29 660 q 30 665 32 671 q 34 677 35 685 q 36 676 36 668 l 36 644 q 36 642 37 626 q 38 610 33 593 q 29 580 28 567 q 28 554 30 543 q 32 531 35 519 q 46 490 56 476 q 66 461 74 454 l 74 621 l 74 750 q 67 754 58 760 q 48 766 40 772 q 32 779 26 786 q 20 794 20 800 l 80 800 l 110 800 l 145 800 l 145 774 l 145 753 l 145 621 l 145 367 q 167 374 180 376 q 223 388 263 402 q 297 414 332 430 q 368 446 389 463 q 409 474 430 481 q 448 487 468 490 q 489 492 508 487 q 490 477 471 465 q 454 454 434 439 q 414 424 393 406 q 370 390 343 375 q 320 361 290 346 q 259 332 224 319 l 245 304 l 244 304 q 240 307 235 310 q 230 314 224 319 q 223 318 221 318 q 226 315 230 312 q 235 310 238 308 q 242 305 244 304 l 259 294 q 296 268 328 238 q 360 209 383 183 q 410 153 433 124 z m 284 150 q 297 142 311 135 q 323 129 338 122 q 354 116 370 113 q 347 134 322 154 q 297 175 275 191 q 249 209 224 227 q 224 227 220 229 q 229 217 240 204 q 250 191 259 179 q 268 167 275 159 q 282 151 284 150 z"},"u":{"x_min":0,"x_max":548,"ha":548,"o":"m 473 109 q 470 87 472 67 q 474 50 479 31 q 484 12 497 1 q 490 2 480 6 q 472 10 460 16 q 448 23 434 36 q 430 33 425 30 q 420 27 415 24 q 398 14 378 10 q 358 5 341 3 q 321 0 301 1 q 241 -1 202 8 q 164 18 141 30 q 115 44 101 63 l 42 124 l 4 206 l 8 230 q 10 244 9 260 q 8 275 6 289 q 3 305 0 321 q 6 311 8 295 q 11 279 13 262 q 15 243 15 221 l 63 137 q 63 140 61 144 q 59 152 57 161 q 55 170 54 180 q 53 190 52 201 q 51 211 50 222 q 50 234 51 248 l 51 310 l 51 436 l 51 444 q 38 452 23 466 q 8 480 7 491 l 56 491 l 85 491 l 111 491 l 111 462 l 111 436 l 111 346 l 111 310 l 111 269 l 111 264 l 111 223 q 114 192 123 165 q 131 142 144 118 q 158 94 183 81 q 242 54 284 60 q 325 65 351 83 q 382 104 401 140 q 406 147 408 160 q 411 173 413 186 q 415 201 415 218 l 415 235 l 416 430 l 416 444 q 403 452 388 466 q 373 480 373 491 l 421 491 l 450 491 l 476 491 l 476 460 l 476 346 l 476 308 l 476 304 l 476 199 q 476 197 476 189 q 476 181 476 168 q 476 155 476 140 q 475 124 473 109 z m 371 27 q 388 24 398 31 q 407 38 412 48 q 417 59 418 75 q 413 59 406 50 q 398 40 390 35 q 381 29 371 27 z"},"]":{"x_min":0,"x_max":287,"ha":287,"o":"m 265 815 l 263 264 l 263 -71 l 263 -219 l 263 -289 l 3 -289 q 18 -270 35 -254 q 49 -240 66 -229 q 84 -218 101 -216 q 109 -214 119 -213 q 136 -211 158 -213 l 164 15 q 165 58 166 99 q 168 140 169 173 q 170 206 171 226 q 172 247 173 249 q 174 251 174 278 q 174 304 174 344 q 175 383 175 430 q 175 477 174 520 q 174 563 174 596 q 174 629 174 641 l 141 700 l 138 734 q 121 736 101 740 q 81 745 62 754 q 42 764 26 778 q 10 793 3 816 z m 154 705 l 179 678 q 181 695 181 712 q 181 728 173 732 l 168 732 q 166 732 162 732 q 159 731 154 732 z"},"U":{"x_min":0,"x_max":622,"ha":622,"o":"m 570 203 q 570 201 570 183 q 571 165 570 141 q 568 117 564 93 q 559 69 548 55 q 546 50 542 46 q 538 41 532 36 q 526 31 515 26 q 495 16 470 12 q 444 7 421 5 q 395 2 367 3 q 296 1 251 10 q 206 20 180 32 q 149 46 133 65 l 65 127 l 20 211 l 25 235 q 27 249 26 264 q 25 280 23 294 q 20 310 16 327 q 23 317 26 300 q 30 284 32 267 q 34 248 34 226 l 89 140 l 90 140 q 89 142 88 144 q 88 146 87 148 q 81 164 78 184 q 77 190 76 197 q 75 203 74 210 q 74 218 74 228 l 74 381 l 7 507 q 5 508 7 522 q 9 535 11 552 l 17 596 q 11 601 8 612 q 5 617 4 624 q 0 643 3 655 q 4 661 7 666 l 6 638 q 7 626 15 620 q 19 616 22 615 l 29 656 q 30 660 31 666 q 32 673 34 678 q 36 684 37 691 l 37 674 q 37 667 38 660 q 38 654 38 651 q 37 648 38 632 q 40 616 35 600 q 31 587 30 574 q 30 561 32 550 q 34 537 37 525 q 48 498 58 483 q 67 468 74 461 l 74 624 l 74 627 l 74 757 q 67 761 58 767 q 48 773 40 780 q 32 786 26 794 q 20 801 20 807 l 81 807 l 111 807 l 145 807 l 145 760 l 145 660 l 145 274 l 145 269 l 145 228 q 145 223 146 217 q 148 204 152 189 q 161 180 174 172 q 188 164 201 158 q 216 151 231 145 q 235 136 244 125 q 254 114 265 103 q 276 92 288 82 q 299 71 308 63 q 356 58 389 70 q 422 81 443 98 q 468 117 483 144 q 488 151 492 164 q 495 177 497 190 q 499 205 499 222 l 499 240 l 499 627 l 499 757 q 492 761 482 767 q 473 773 465 780 q 457 786 451 794 q 445 801 445 807 l 506 807 l 536 807 l 570 807 l 570 781 l 570 760 l 570 660 l 570 627 l 570 238 z m 219 136 q 199 141 181 158 q 163 174 153 186 q 161 160 178 130 q 195 100 229 83 q 240 79 250 76 q 259 73 268 70 q 261 80 253 92 q 245 103 237 113 q 228 124 219 136 z m 531 48 q 540 66 546 82 q 551 96 556 108 q 560 121 558 126 q 544 102 531 83 q 520 66 507 51 q 494 36 485 31 q 496 34 506 38 q 514 41 522 44 q 529 46 531 48 z"},"o":{"x_min":0,"x_max":527,"ha":527,"o":"m 446 399 q 464 355 475 315 q 485 280 488 242 q 492 204 480 177 q 472 143 456 113 q 442 87 418 63 q 395 39 358 30 q 323 16 283 9 q 249 3 207 3 q 165 3 121 20 q 108 29 95 40 q 84 49 70 60 q 56 72 44 85 q 41 74 45 63 q 47 58 49 54 q 44 59 40 66 q 37 74 35 82 q 32 90 31 99 q 16 116 9 131 q 1 175 1 221 q 1 260 8 306 q 14 353 37 395 q 52 417 69 435 q 83 451 99 466 q 115 480 129 485 q 165 490 199 492 q 228 494 260 493 q 293 492 319 485 q 347 474 372 461 q 393 450 414 434 q 435 418 446 399 z m 373 152 l 423 240 q 425 260 420 282 q 415 304 408 324 q 400 347 389 369 q 369 389 354 401 q 345 408 337 413 q 325 426 300 430 q 276 434 251 434 q 222 434 190 429 q 167 425 150 414 q 133 403 122 392 q 109 379 100 363 q 93 350 86 325 q 97 332 110 348 l 127 370 q 122 361 117 351 q 112 343 107 334 q 102 325 96 318 q 92 313 88 310 q 85 308 81 306 q 76 286 74 264 q 72 242 70 225 q 68 204 67 185 q 65 181 74 168 q 82 155 92 141 q 103 124 119 103 q 129 89 140 82 q 152 75 161 71 q 172 67 182 66 q 196 63 215 62 q 234 62 251 63 q 270 64 290 66 q 304 70 318 76 q 331 83 342 90 q 354 98 366 106 z m 381 110 q 391 121 400 135 q 408 147 414 162 q 421 178 424 197 l 404 173 q 396 163 390 154 q 385 146 386 144 z"},"N":{"x_min":0,"x_max":633,"ha":633,"o":"m 583 803 l 583 772 l 583 699 l 583 655 l 583 618 l 583 181 l 583 47 l 583 28 q 583 17 572 10 q 562 3 547 3 q 536 3 528 7 q 519 11 515 18 l 514 18 l 470 92 l 143 646 l 143 624 l 143 185 l 143 149 l 143 104 l 143 32 l 143 2 l 109 2 l 79 2 l 19 2 q 19 8 25 15 q 31 22 39 29 q 47 36 56 42 q 66 48 73 52 l 73 104 l 73 132 l 27 216 l 31 239 q 33 253 32 269 q 31 285 29 299 q 26 315 22 331 q 29 321 32 304 q 36 288 38 271 q 40 252 40 230 l 73 183 l 73 185 l 73 377 l 5 504 q 3 505 4 519 q 6 533 8 550 q 11 569 15 593 q 12 595 10 600 q 7 604 5 609 q 2 614 1 621 q -3 640 0 652 q 1 658 4 663 l 3 635 q 4 628 7 624 q 10 620 13 618 q 17 615 20 613 l 26 653 q 27 657 28 664 q 29 670 31 675 q 33 681 34 688 q 35 679 35 671 l 35 648 q 35 645 36 629 q 37 613 32 597 q 28 584 28 571 q 27 558 29 547 q 31 534 34 522 q 45 494 55 479 q 65 464 73 457 l 73 624 l 73 756 l 73 778 q 73 789 83 796 q 93 803 108 803 q 117 803 125 800 q 136 798 140 791 l 214 667 q 214 666 215 665 l 280 554 q 287 549 294 544 q 301 539 306 535 q 312 530 318 526 q 317 518 333 498 q 349 478 369 458 q 392 434 420 406 q 397 418 378 436 q 358 453 344 470 q 327 489 314 510 q 307 517 300 520 l 468 235 l 466 240 q 468 237 473 234 q 478 230 483 228 q 489 225 497 223 q 500 221 504 222 q 508 222 512 223 l 512 618 l 512 699 l 512 753 q 505 757 496 763 q 486 769 478 776 q 470 783 464 790 q 458 797 458 803 l 519 803 l 548 803 z m 512 206 q 504 203 497 204 q 490 204 485 206 l 512 160 l 512 181 z"},"+":{"x_min":0,"x_max":479,"ha":479,"o":"m 398 319 q 422 319 436 307 q 449 295 455 281 q 462 264 463 244 q 457 255 446 262 q 434 269 420 273 q 407 277 393 279 q 379 281 370 282 q 364 280 352 276 q 340 273 325 269 q 310 265 294 262 q 279 259 266 259 q 268 224 266 201 q 263 178 259 164 q 254 148 247 140 q 238 116 234 98 q 229 80 227 68 q 224 54 225 44 q 214 58 208 79 q 202 100 200 120 q 197 144 197 169 q 205 192 207 208 q 209 225 208 236 q 207 248 203 255 q 202 260 200 272 l 196 273 q 174 279 149 282 q 124 286 111 282 q 85 284 63 281 q 44 279 26 272 q 9 265 1 251 q 2 270 10 285 q 17 298 30 308 q 43 319 68 319 l 196 329 l 197 329 q 197 352 198 375 q 198 398 199 418 q 200 441 201 462 l 248 536 l 261 488 q 258 476 258 457 q 257 438 257 416 q 257 394 258 372 q 259 349 260 329 l 263 329 z m 265 268 q 279 270 302 273 q 325 276 354 282 q 340 286 313 286 q 286 285 264 280 q 264 277 264 275 q 265 273 265 271 z"},"G":{"x_min":0,"x_max":645,"ha":645,"o":"m 604 240 q 618 199 611 159 q 608 142 600 124 q 591 106 575 88 q 559 71 534 54 q 509 38 472 25 q 471 24 470 24 q 465 22 461 21 q 457 20 452 18 q 451 18 450 18 q 450 17 449 17 q 384 -2 332 1 q 281 4 241 20 q 201 35 172 60 q 144 85 125 110 q 124 102 126 94 q 127 86 129 81 q 131 74 133 69 q 124 81 119 99 q 114 117 112 129 q 103 142 96 154 q 90 166 86 175 q 81 186 78 194 q 59 236 54 288 q 50 340 54 392 q 49 385 44 377 q 40 369 36 361 q 32 352 28 342 q 22 329 20 308 q 19 286 21 264 q 22 238 26 211 q 14 223 9 249 q 4 275 3 302 q 1 334 4 370 l 52 459 l 62 464 q 67 494 72 520 q 76 545 81 564 q 86 586 92 605 q 105 650 127 682 q 149 715 169 736 q 193 761 219 777 q 248 794 286 798 q 323 803 356 801 q 395 798 433 790 q 498 773 530 742 q 563 710 576 680 q 591 644 588 605 q 568 636 547 658 q 526 679 506 694 q 495 696 482 699 q 470 702 459 704 q 447 707 434 709 l 390 739 q 314 741 268 718 q 222 694 197 664 q 167 629 154 584 q 146 569 142 554 q 153 560 169 579 q 185 598 206 642 q 205 633 203 624 q 201 616 200 608 q 198 601 195 596 q 188 580 178 565 q 170 552 158 538 q 146 524 131 515 q 117 457 118 404 q 118 352 125 312 q 133 265 147 225 q 159 187 176 160 q 193 132 212 114 q 232 95 252 84 q 272 73 292 67 q 338 54 388 62 q 405 63 422 67 q 438 71 452 77 q 456 79 476 90 q 495 102 514 125 q 533 148 544 182 q 555 217 542 265 q 532 292 514 318 q 499 339 474 361 q 448 383 410 394 q 388 396 369 395 q 352 394 336 392 q 319 389 311 382 q 320 394 335 404 q 348 412 367 418 q 386 425 414 425 q 451 419 485 398 q 514 379 546 342 q 579 306 604 240 z m 478 713 q 464 721 453 725 q 442 729 434 732 q 424 735 417 737 l 412 737 l 444 717 q 452 718 460 716 q 469 715 478 713 z m 558 97 q 578 115 586 134 q 594 154 596 170 q 598 188 593 206 q 591 184 584 163 q 577 142 570 125 q 565 110 558 98 z"},"q":{"x_min":0,"x_max":568,"ha":568,"o":"m 488 287 l 488 -261 l 488 -308 l 454 -308 l 424 -308 l 364 -308 q 364 -302 370 -295 q 376 -288 384 -281 q 392 -274 401 -268 q 410 -263 417 -259 l 417 -204 l 381 -137 l 385 -113 q 387 -99 386 -84 q 385 -68 383 -54 q 380 -38 376 -22 q 383 -32 386 -48 q 390 -64 392 -81 q 394 -100 394 -122 l 417 -156 l 417 29 q 404 20 384 14 q 364 7 334 4 q 304 0 263 2 q 222 3 168 11 q 141 22 116 35 q 95 46 74 62 q 54 77 43 97 q 25 140 14 180 q 4 215 0 252 q -4 290 9 317 q 21 352 39 382 q 54 408 76 432 q 99 455 129 464 q 150 470 180 475 q 206 480 243 484 q 280 488 331 490 q 350 490 371 491 q 389 491 412 492 q 434 492 457 490 q 470 488 479 481 q 488 474 488 464 l 488 389 l 488 331 z m 371 151 l 422 239 q 424 259 419 281 q 414 303 407 322 q 398 344 387 366 q 377 376 368 384 q 359 392 351 398 q 342 405 334 410 q 321 423 296 427 q 271 431 245 431 q 215 431 182 426 q 157 422 140 412 q 122 401 111 390 q 98 377 89 361 q 81 348 74 322 q 79 326 84 332 q 90 337 98 345 l 116 367 q 111 358 106 349 q 101 341 96 332 q 91 323 85 316 q 78 308 69 304 q 64 284 62 262 q 59 241 57 224 q 55 204 54 184 q 52 180 60 167 q 69 154 80 140 q 92 123 109 102 q 119 88 130 81 q 141 74 151 70 q 162 66 173 65 q 188 61 208 61 q 227 61 244 62 q 264 63 285 65 q 299 69 314 76 q 328 82 339 89 q 352 97 364 105 z m 381 116 q 393 119 404 130 q 412 139 420 155 q 427 171 427 199 l 392 152 z m 444 -261 l 442 -261 l 444 -262 z"},"d":{"x_min":0,"x_max":567,"ha":567,"o":"m 496 206 q 497 184 496 163 l 496 105 l 496 30 q 496 20 488 13 q 479 6 465 5 l 465 4 q 442 2 420 2 q 397 1 380 2 q 359 2 341 4 q 290 6 253 10 q 216 14 190 19 q 160 24 139 30 q 109 38 86 62 q 64 86 49 112 q 31 142 20 176 q 7 203 11 240 q 15 278 24 313 q 35 353 53 396 q 64 415 84 430 q 105 446 126 457 q 151 470 178 481 q 244 491 290 491 q 336 491 368 485 l 359 502 q 357 503 359 516 q 361 530 363 547 q 366 566 369 590 q 366 592 364 596 q 361 601 359 606 q 356 611 355 618 q 351 637 354 649 q 355 655 358 659 l 358 632 q 359 621 367 615 q 371 612 374 610 l 380 650 q 381 654 382 660 q 383 667 385 672 q 387 678 388 685 q 389 676 389 668 l 389 644 q 389 642 390 626 q 391 610 386 594 q 382 581 382 568 q 381 555 383 544 q 385 532 388 520 q 395 503 402 490 q 408 478 414 470 q 417 468 420 466 q 423 465 426 463 l 426 750 q 419 754 410 760 q 401 765 393 772 q 385 779 379 786 q 373 793 373 799 l 433 799 l 462 799 l 496 799 l 496 752 z m 64 184 q 63 182 67 174 q 71 167 78 158 q 84 148 92 138 q 100 127 106 119 l 95 168 l 66 202 q 65 197 65 194 q 65 191 65 189 q 65 186 64 184 z m 431 239 q 433 259 428 281 q 423 303 416 322 q 407 344 396 366 q 386 376 377 384 q 368 392 360 398 q 351 405 343 410 q 330 423 305 427 q 280 431 255 431 q 225 431 192 426 q 167 422 150 412 q 132 401 121 390 q 108 377 99 361 q 91 348 84 322 q 89 326 94 332 q 100 337 108 345 l 126 367 q 121 358 116 349 q 111 341 106 332 q 101 323 95 316 q 91 311 87 308 q 83 306 79 304 q 75 287 73 268 q 71 249 69 233 l 109 168 q 117 140 120 123 q 123 106 124 96 q 134 85 145 79 q 156 73 164 70 q 174 66 183 66 q 198 63 217 62 q 236 62 253 63 q 273 64 294 66 q 308 70 322 76 q 337 83 348 90 q 361 98 373 106 l 380 151 z m 453 752 l 453 753 l 451 752 z"},"1":{"x_min":0,"x_max":255,"ha":255,"o":"m 154 50 q 163 46 176 40 q 189 34 201 28 q 213 21 222 14 q 231 6 231 -1 l 154 -1 l 125 -1 l 109 -1 l 90 -1 l 3 -1 q 3 6 13 14 q 23 22 36 30 q 48 37 62 43 q 75 49 83 52 l 83 100 l 83 128 l 38 210 l 42 234 q 44 248 43 264 q 42 279 40 293 q 37 309 33 325 q 40 315 44 299 q 47 283 49 266 q 51 247 51 225 l 83 179 l 83 181 l 83 699 q 63 696 42 696 q 22 697 14 705 l 100 781 q 116 793 128 795 q 139 797 147 788 q 155 778 154 746 l 154 181 l 154 144 l 154 100 l 154 50 z"},"5":{"x_min":0,"x_max":548,"ha":548,"o":"m 449 351 q 489 308 495 264 q 501 219 491 182 q 480 139 452 98 q 431 58 394 39 q 356 20 320 12 q 278 3 231 4 q 174 -2 134 6 q 95 14 70 26 q 41 40 23 60 q 2 82 0 100 q -2 119 5 133 q 13 149 30 162 q 28 141 37 126 q 46 110 57 99 q 70 87 88 77 q 147 65 193 65 q 239 65 272 71 l 220 93 q 195 90 172 89 q 152 88 132 90 q 113 91 101 96 q 120 94 139 94 q 156 94 174 94 q 192 95 208 100 l 235 107 l 316 81 q 326 84 334 88 q 341 91 346 93 q 352 96 356 98 q 384 120 399 143 q 414 166 420 188 q 426 209 424 229 q 422 249 416 266 q 401 306 364 343 q 320 367 274 382 q 227 398 189 407 q 144 418 101 423 q 88 432 84 445 q 81 458 83 470 l 90 794 l 157 794 l 157 793 l 390 790 q 435 790 457 774 q 479 759 487 740 q 497 718 495 690 q 486 702 468 710 q 450 719 429 726 q 408 732 386 736 q 365 741 348 743 q 333 740 309 736 q 285 731 258 728 q 232 724 205 722 q 178 719 157 719 l 157 491 q 185 486 214 480 q 242 473 259 466 q 261 464 272 460 q 283 457 295 452 q 309 447 326 441 q 371 413 396 396 q 420 378 432 368 q 446 357 449 351 z m 313 748 q 301 750 282 749 q 264 748 243 746 q 222 744 200 740 q 177 737 157 733 l 157 730 q 172 731 215 734 q 258 737 327 746 q 323 746 321 746 q 319 747 317 747 q 315 747 313 748 z"}}}
